<?xml version="1.0" standalone="no"?>
<!DOCTYPE svg PUBLIC "-//W3C//DTD SVG 20010904//EN"
 "http://www.w3.org/TR/2001/REC-SVG-20010904/DTD/svg10.dtd">
<svg version="1.0" xmlns="http://www.w3.org/2000/svg"
 width="1280.000000pt" height="1112.000000pt" viewBox="0 0 1280.000000 1112.000000"
 preserveAspectRatio="xMidYMid meet">

<g transform="translate(0.000000,1112.000000) scale(0.100000,-0.100000)"
fill="#000000" stroke="none">
<path d="M5865 10635 c-33 -30 -72 -66 -87 -79 -15 -13 -31 -42 -37 -67 -30
-120 -30 -120 -77 -141 -55 -24 -104 -33 -138 -24 -23 6 -25 11 -24 56 2 87
-60 128 -176 115 -103 -11 -142 -45 -187 -165 -15 -40 -23 -95 -30 -200 -5
-80 -14 -155 -19 -168 -12 -27 -102 -72 -145 -72 -66 0 -108 46 -120 130 -9
60 13 89 72 97 62 8 92 -3 108 -40 l14 -32 1 31 c0 39 -35 92 -79 118 -50 29
-190 35 -262 11 -99 -33 -149 -79 -149 -139 0 -28 41 -67 106 -99 60 -31 84
-75 84 -160 0 -65 -25 -116 -69 -142 -39 -23 -106 -84 -112 -102 -5 -16 -105
9 -127 31 -11 11 -16 50 -19 163 -5 164 -8 186 -24 163 -6 -9 -7 -45 -4 -85 6
-68 5 -72 -30 -125 -30 -47 -35 -62 -35 -115 0 -48 -7 -74 -34 -130 -49 -100
-78 -135 -149 -175 -79 -46 -107 -90 -107 -174 0 -119 44 -234 116 -299 45
-41 64 -84 64 -144 0 -29 -3 -33 -37 -38 -91 -15 -352 -68 -397 -81 -27 -8
-52 -14 -54 -14 -3 0 -1 27 2 61 8 70 -4 98 -53 118 -50 21 -129 -22 -221
-120 -59 -63 -83 -81 -110 -85 -57 -9 -82 18 -88 95 -2 34 -9 64 -13 67 -17
10 -98 -37 -129 -74 -16 -20 -42 -68 -56 -107 -15 -38 -37 -90 -50 -115 -40
-81 -142 -160 -278 -216 -136 -57 -192 -133 -221 -299 -22 -122 -20 -200 5
-267 45 -120 145 -243 275 -335 l95 -67 -50 -19 c-71 -26 -143 -95 -182 -174
-27 -55 -32 -77 -32 -137 -1 -116 47 -182 127 -174 25 2 36 10 47 35 13 26 23
33 69 42 74 15 135 14 177 -4 48 -20 79 -88 69 -152 -11 -76 -12 -76 -63 -33
-177 149 -386 93 -478 -127 -36 -88 -41 -208 -9 -262 31 -53 67 -74 132 -79
l58 -4 -3 -42 c-12 -143 95 -242 252 -234 83 4 140 29 202 90 l41 40 28 -26
c42 -39 90 -51 205 -50 175 2 357 60 426 136 67 75 69 112 14 282 -51 157 -52
200 -5 293 19 38 45 79 59 92 l24 22 83 -42 c105 -52 310 -188 367 -242 35
-34 42 -48 42 -78 0 -29 6 -43 26 -58 l27 -21 -21 -47 c-15 -35 -18 -53 -11
-71 15 -39 -28 -75 -161 -139 -135 -65 -203 -114 -260 -188 -74 -95 -86 -192
-33 -255 l25 -30 -24 -9 c-79 -31 -118 -52 -127 -70 -15 -28 -14 -72 4 -115
14 -33 14 -40 -1 -71 -19 -40 -85 -97 -140 -121 -65 -28 -69 -30 -82 -57 -7
-15 -16 -61 -20 -103 l-7 -76 -50 -21 c-28 -12 -71 -34 -96 -48 l-45 -25 -25
27 c-33 36 -126 63 -190 56 -110 -13 -170 -71 -194 -187 -9 -41 -18 -76 -20
-79 -3 -2 -31 -5 -62 -5 -70 -1 -106 -22 -135 -79 -18 -37 -20 -51 -13 -163 8
-149 1 -213 -31 -259 -30 -45 -33 -112 -5 -146 19 -24 19 -24 -10 -57 -25 -28
-29 -41 -29 -88 0 -31 7 -69 16 -87 15 -30 14 -29 -32 14 -54 52 -102 79 -180
102 -136 40 -204 107 -204 199 -1 89 -14 117 -96 199 -63 63 -91 83 -150 108
-41 17 -90 31 -110 31 -115 0 -219 -144 -199 -276 6 -43 5 -45 -14 -35 -29 16
-116 13 -158 -4 -99 -42 -147 -111 -141 -206 l3 -59 -46 0 c-71 0 -148 -44
-176 -100 -24 -46 -30 -111 -14 -153 9 -22 7 -25 -18 -30 -38 -8 -91 -54 -107
-94 -20 -47 -17 -120 7 -169 20 -41 20 -44 2 -70 -13 -20 -17 -47 -17 -98 0
-92 20 -131 79 -157 39 -17 44 -23 50 -62 4 -23 20 -90 36 -149 70 -257 100
-301 398 -584 199 -190 304 -280 410 -349 17 -11 95 -69 173 -129 267 -203
532 -369 833 -521 254 -128 398 -179 510 -178 92 0 137 14 240 76 177 105 293
241 345 405 37 113 37 160 5 282 -25 91 -25 96 -10 137 9 24 15 63 14 90 -4
53 -3 53 60 34 55 -16 120 -7 156 21 23 18 31 19 64 9 69 -20 133 -14 196 20
49 26 62 29 82 20 90 -41 275 41 260 115 -3 20 1 22 53 26 71 5 104 26 131 81
16 32 34 50 72 70 78 41 181 121 292 227 193 185 427 324 765 453 286 109 402
143 555 162 70 9 335 78 476 125 121 39 369 143 430 179 19 11 108 53 199 94
91 41 200 95 243 121 43 26 115 65 160 87 45 23 107 56 137 74 54 32 56 32
135 24 246 -27 513 -162 570 -289 l19 -42 -34 -67 c-76 -146 -235 -328 -395
-451 -162 -125 -332 -188 -550 -205 -79 -6 -106 -3 -222 24 -72 16 -166 44
-208 60 -42 17 -84 31 -94 31 -12 0 -24 -19 -42 -68 -35 -96 -33 -241 5 -367
33 -110 103 -259 153 -327 102 -139 314 -255 333 -181 16 66 101 112 206 113
86 0 143 -26 191 -88 51 -67 70 -132 77 -272 4 -68 9 -127 12 -129 10 -10 243
237 317 336 189 251 359 537 452 758 25 61 53 126 61 145 33 72 95 288 106
365 14 101 4 310 -17 389 -33 120 -120 255 -217 338 -128 108 -188 138 -313
153 l-57 8 78 38 c44 21 101 57 128 79 26 22 56 40 65 40 14 0 68 29 211 113
68 39 85 47 110 47 14 0 43 9 66 19 47 21 69 63 61 115 -5 29 0 38 31 69 20
19 47 38 58 41 38 11 103 64 128 104 42 67 265 162 341 146 81 -17 115 -60
115 -145 0 -81 -50 -168 -169 -292 -78 -82 -169 -152 -216 -167 -59 -19 -79
-35 -119 -93 -105 -154 -125 -430 -41 -573 49 -84 141 -127 229 -107 44 10 46
9 46 -12 0 -38 -35 -137 -64 -183 -43 -68 -98 -115 -167 -141 -128 -49 -256
-226 -294 -406 -37 -173 -29 -459 15 -545 50 -98 159 -121 271 -58 31 17 44
20 57 12 32 -20 43 -56 38 -117 -7 -69 -16 -89 -67 -142 -74 -78 -81 -125 -32
-234 33 -76 69 -120 112 -138 20 -8 49 -27 65 -41 24 -23 28 -24 21 -7 -24 62
-35 115 -35 165 0 146 107 340 188 340 47 0 52 10 59 121 10 162 7 208 -21
289 -31 91 -32 100 -6 67 11 -14 46 -38 77 -53 47 -23 72 -28 162 -32 61 -2
130 1 162 7 82 17 157 66 194 125 27 44 30 58 30 125 -1 94 -22 158 -84 253
-83 128 -148 251 -171 322 -21 63 -22 82 -17 215 9 239 47 404 132 587 57 123
110 202 252 379 66 83 130 169 142 192 33 67 51 150 51 243 0 101 -21 155 -71
191 -31 22 -44 24 -129 23 -70 -1 -110 -7 -154 -23 -33 -11 -62 -21 -67 -21
-4 0 6 24 22 53 39 73 63 169 54 224 -16 107 -136 168 -279 142 -82 -15 -195
-59 -286 -113 -77 -45 -190 -139 -190 -158 0 -6 18 6 41 27 103 93 268 179
406 211 113 26 215 3 253 -58 51 -80 -11 -264 -129 -385 -62 -64 -114 -98
-131 -88 -16 10 -11 -11 5 -25 24 -20 71 5 150 80 65 61 77 68 155 90 109 30
214 32 253 6 16 -11 37 -37 49 -60 18 -35 20 -53 16 -140 -8 -148 -26 -187
-170 -364 -160 -195 -188 -233 -241 -333 -123 -227 -188 -511 -173 -754 10
-161 53 -272 179 -458 90 -134 120 -263 79 -342 -46 -91 -121 -127 -273 -133
-169 -6 -258 30 -300 123 -23 49 -25 143 -5 210 32 104 121 199 199 212 32 5
41 1 71 -29 19 -19 39 -52 45 -73 22 -81 7 -219 -25 -232 -8 -3 -28 0 -44 7
-26 11 -30 18 -30 50 0 20 9 63 20 95 21 61 20 71 -4 62 -40 -16 -75 -177 -46
-212 20 -24 76 -47 106 -43 50 6 69 55 69 178 0 93 -3 110 -25 150 -30 53 -81
90 -124 90 -75 -1 -174 -78 -222 -172 -65 -128 -70 -287 -14 -450 l33 -97 -12
-129 -13 -130 -29 -6 c-108 -21 -230 -277 -199 -418 6 -28 8 -53 6 -56 -3 -2
-19 6 -36 18 -36 26 -110 167 -110 210 0 27 44 105 74 129 66 54 72 211 11
259 -16 13 -21 22 -14 29 5 5 -21 -1 -58 -13 -39 -14 -92 -24 -125 -24 -49 0
-60 4 -86 30 -45 45 -57 109 -56 300 0 210 18 301 82 425 60 117 113 173 205
217 123 60 212 186 224 318 6 59 7 60 54 90 78 48 166 145 207 230 36 74 37
77 37 195 0 133 -17 202 -62 255 -70 84 -173 -14 -234 -223 -34 -120 -35 -128
-11 -157 29 -36 63 -21 111 51 38 57 53 111 33 123 -4 2 -20 -19 -35 -47 -34
-64 -74 -114 -83 -104 -27 27 65 264 125 321 47 45 77 20 105 -89 49 -184 -16
-367 -171 -490 -147 -115 -284 -90 -344 63 -32 83 -32 269 0 362 35 102 65
147 114 168 55 25 168 106 240 172 120 110 217 268 217 356 0 39 -22 99 -48
127 -73 80 -227 60 -399 -54 l-33 -21 0 48 c0 59 30 100 61 81 14 -9 22 -7 38
7 31 28 54 99 47 143 -18 106 -17 110 17 155 57 78 67 102 57 137 -5 18 -7 38
-5 44 2 7 6 35 9 64 6 48 4 54 -24 83 -32 33 -35 47 -21 98 10 34 0 80 -20 92
-5 4 0 23 11 45 11 22 20 52 20 68 0 33 -39 77 -69 77 -18 0 -19 5 -14 54 7
72 -13 150 -49 191 l-29 33 55 7 c31 4 88 5 128 3 64 -4 79 -9 127 -42 43 -29
59 -48 76 -89 53 -131 143 -225 293 -305 136 -72 248 -88 419 -58 155 28 338
122 431 222 109 116 143 198 203 484 16 80 63 281 104 447 41 166 82 342 91
390 9 48 31 142 49 208 39 142 104 571 136 897 21 206 22 242 11 376 -9 119
-19 171 -48 267 -42 138 -54 164 -101 222 -33 40 -34 43 -19 65 50 71 -17 208
-101 208 -23 0 -32 8 -53 47 -29 54 -91 103 -132 103 -16 0 -43 -7 -59 -16
-17 -8 -32 -14 -33 -12 -1 2 -6 17 -12 33 -14 42 -103 95 -162 95 -53 0 -89
-18 -131 -65 l-31 -36 0 33 c0 85 -118 150 -239 132 -56 -9 -126 -74 -136
-128 l-7 -35 -49 53 c-157 172 -368 108 -496 -150 -43 -87 -47 -102 -51 -184
-5 -99 8 -167 39 -210 33 -44 35 -164 4 -260 -52 -163 -68 -271 -68 -470 1
-172 -1 -189 -23 -244 -20 -49 -24 -77 -24 -160 0 -56 5 -129 10 -164 l11 -64
-50 -66 c-58 -78 -186 -204 -254 -251 -77 -52 -156 -85 -437 -181 -146 -50
-318 -116 -383 -147 -112 -54 -118 -56 -135 -39 -16 17 -15 19 15 45 18 15 90
51 160 80 219 90 296 160 360 329 23 61 25 75 19 167 l-7 100 32 48 c17 26 50
60 73 76 86 59 235 94 257 60 6 -8 8 -50 6 -94 l-4 -80 19 40 c25 54 20 174
-9 213 -50 67 -130 88 -222 57 -61 -20 -144 -91 -173 -149 -12 -22 -50 -71
-86 -108 -101 -105 -125 -89 -96 62 13 67 15 93 6 102 -24 24 -102 -56 -127
-129 -11 -32 -14 -35 -20 -18 -26 78 -80 168 -125 209 -89 79 -177 92 -352 51
-155 -36 -240 -77 -307 -150 -70 -76 -91 -133 -91 -248 0 -124 -22 -193 -125
-397 -81 -158 -158 -258 -239 -305 -59 -34 -164 -57 -242 -51 -78 5 -96 19
-176 135 -29 42 -69 96 -89 121 -38 46 -111 175 -200 352 -77 153 -128 199
-240 216 l-54 8 102 17 c56 9 133 17 170 17 93 0 428 18 538 30 183 19 355 79
545 190 144 84 201 163 234 324 26 129 17 195 -32 239 -42 38 -88 34 -217 -19
-11 -4 7 15 40 43 214 178 327 410 295 605 -24 152 -81 258 -202 379 -87 88
-163 140 -255 176 -60 24 -83 27 -188 28 -111 1 -124 4 -175 30 -192 98 -385
111 -510 34 -31 -20 -47 -22 -150 -20 -73 2 -142 -3 -190 -13 -103 -21 -224
-83 -287 -146 l-51 -51 -31 53 c-17 29 -51 79 -77 110 -55 68 -65 116 -41 199
21 69 57 110 132 149 59 31 60 31 20 25 -80 -12 -173 -55 -205 -93 -46 -56
-70 -129 -68 -209 2 -74 -15 -123 -57 -166 -31 -30 -78 -44 -192 -58 -87 -11
-94 -10 -127 10 -46 29 -50 46 -25 97 40 83 119 110 194 65 20 -11 38 -21 40
-21 2 0 -4 19 -13 43 -20 53 -48 86 -89 103 -44 19 -186 18 -222 -1 -16 -8
-57 -48 -91 -89 -70 -82 -91 -96 -153 -96 -40 0 -43 2 -60 40 -22 51 -21 75 2
125 35 75 85 105 179 105 82 1 152 40 171 96 14 39 13 46 -12 117 -15 41 -27
83 -27 92 0 23 27 74 67 123 52 64 35 68 -32 7z m-51 -103 c-12 -25 -11 -35
11 -97 14 -39 25 -82 25 -97 0 -55 -76 -99 -175 -102 -79 -2 -144 -38 -182
-103 -38 -66 -38 -127 2 -185 29 -40 34 -43 80 -46 69 -3 108 19 178 103 32
39 68 75 80 82 12 7 55 12 95 13 74 0 127 -15 150 -42 10 -13 6 -14 -38 -10
-42 4 -56 0 -89 -21 -108 -71 -112 -197 -7 -227 47 -13 179 -2 257 22 85 25
130 99 139 228 4 68 11 95 34 138 33 59 71 101 43 47 -8 -17 -21 -58 -27 -90
-17 -82 -4 -123 66 -210 66 -82 85 -118 108 -202 16 -61 16 -64 -3 -107 l-19
-45 -41 20 c-54 26 -92 24 -152 -6 -105 -54 -180 -166 -187 -280 -10 -152 119
-244 249 -179 30 15 59 69 59 108 0 63 -48 126 -95 126 -35 0 -91 -73 -79
-104 7 -19 38 -29 64 -21 28 9 25 25 -5 25 -32 0 -32 14 1 47 l27 27 23 -28
c17 -19 24 -39 24 -71 0 -59 -32 -85 -104 -85 -44 0 -56 4 -78 28 -38 39 -50
78 -42 137 12 88 63 166 143 217 79 50 152 31 208 -53 25 -38 28 -52 29 -132
2 -100 13 -121 70 -133 45 -9 69 19 77 86 8 70 27 90 27 29 0 -33 8 -58 31
-94 45 -71 59 -118 59 -199 0 -79 -34 -172 -67 -182 -45 -13 -191 -92 -225
-122 -48 -44 -72 -105 -64 -169 14 -108 18 -98 -45 -95 -51 3 -59 0 -78 -24
-31 -39 -29 -107 4 -140 15 -15 32 -23 41 -20 8 3 12 2 9 -4 -8 -13 -174 -60
-216 -60 -21 -1 -90 -22 -141 -44 -35 -16 23 90 67 122 113 81 180 225 156
332 -17 76 -87 115 -133 73 -17 -15 -18 -15 -18 14 0 49 -53 184 -98 251 -37
54 -42 66 -36 100 10 66 -3 78 -108 97 -51 9 -100 23 -108 30 -21 18 -200 71
-395 117 -73 17 -202 14 -250 -6 -27 -11 -90 -68 -190 -169 -153 -156 -205
-216 -297 -346 -48 -67 -58 -76 -108 -93 -43 -14 -292 -58 -332 -58 -5 0 -8
17 -8 38 0 61 -17 103 -59 146 -77 79 -125 244 -98 337 10 36 22 50 62 76 93
59 134 103 172 182 32 65 37 86 37 151 1 59 6 83 23 109 l21 34 7 -63 c5 -39
14 -69 25 -80 18 -18 78 -40 109 -40 10 0 12 -8 7 -32 -20 -98 -19 -126 8
-181 28 -58 55 -77 111 -77 45 0 89 38 125 111 58 114 55 181 -10 214 -39 20
-51 12 -86 -57 -32 -62 -32 -98 -1 -98 28 0 67 26 67 46 0 18 -5 18 -35 -2
-33 -21 -32 -4 1 46 31 46 34 47 59 20 22 -25 17 -67 -19 -143 -37 -77 -67
-107 -109 -107 -45 0 -73 32 -87 97 -21 97 21 190 111 248 74 47 102 98 102
188 -1 99 -33 152 -118 195 -22 11 -48 29 -58 40 -17 18 -17 24 -5 48 33 70
180 118 289 95 31 -7 64 -17 73 -24 14 -10 9 -12 -26 -9 -74 5 -128 -44 -128
-116 0 -51 22 -106 55 -139 30 -30 38 -33 94 -33 73 0 161 35 186 74 13 19 20
63 27 164 18 272 67 352 216 352 75 0 112 -25 112 -74 0 -19 9 -45 21 -60 17
-22 29 -26 68 -26 65 0 136 26 165 61 15 18 30 54 37 90 11 56 40 109 59 109
5 0 2 -13 -6 -28z m1801 -502 c96 -30 203 -83 243 -119 33 -31 43 -29 17 5 -8
10 -15 22 -15 27 0 4 33 7 73 7 94 0 216 -42 309 -106 97 -66 212 -193 253
-279 85 -178 79 -334 -22 -515 -46 -82 -260 -303 -355 -366 -114 -76 -102 -86
25 -23 276 139 360 116 328 -93 -31 -199 -91 -272 -321 -386 -192 -95 -374
-142 -552 -142 -43 0 -170 -8 -281 -17 -111 -9 -215 -16 -232 -15 -57 1 -215
-28 -282 -53 -87 -33 -150 -74 -206 -134 -54 -58 -76 -100 -111 -209 -43 -138
-32 -243 41 -386 23 -46 119 -174 172 -229 94 -99 285 -212 414 -243 82 -20
104 -50 30 -40 -27 4 -82 11 -123 17 -124 17 -233 40 -265 56 -56 29 -255 176
-279 207 -13 17 -51 62 -85 100 -78 88 -126 185 -148 300 -16 84 -16 96 0 186
25 151 60 227 202 440 54 81 183 210 260 261 78 51 131 59 199 29 200 -88 241
-97 376 -80 117 15 181 38 273 100 205 138 287 265 289 451 2 126 -55 209
-144 209 -69 0 -170 -68 -225 -152 -33 -48 -36 -119 -9 -160 17 -26 141 -97
151 -87 2 3 -21 25 -52 49 -68 54 -88 94 -71 142 25 72 113 150 183 164 45 8
93 -19 111 -61 28 -68 13 -220 -31 -304 -38 -75 -188 -207 -294 -261 -40 -20
-43 -20 -36 -3 31 77 24 116 -39 228 -53 91 -61 125 -52 203 11 97 80 221 184
334 l54 58 70 0 c130 0 232 76 257 193 13 58 -1 212 -23 255 -50 97 -157 109
-252 29 -25 -21 -38 -25 -67 -20 -51 8 -82 -2 -128 -44 -51 -46 -82 -106 -83
-161 -1 -35 4 -47 24 -62 30 -23 22 -34 -14 -20 -48 18 -108 12 -164 -17 l-54
-27 -46 18 c-124 48 -131 49 -172 37 -21 -6 -50 -25 -63 -41 l-25 -29 -18 26
c-32 49 -30 104 5 180 33 70 65 183 52 183 -4 0 -18 -19 -31 -42 -13 -24 -38
-59 -55 -79 -34 -38 -72 -137 -83 -217 -6 -42 -10 -47 -35 -50 -49 -6 -57 10
-56 120 0 87 -3 104 -24 140 l-24 41 25 44 c22 40 24 52 18 116 l-6 70 48 47
c97 94 262 150 436 150 116 -1 179 -12 219 -41 15 -11 27 -17 27 -14 0 18 -25
48 -53 65 l-31 19 30 11 c117 45 216 48 339 10z m3528 -171 c46 -24 67 -51 67
-89 l0 -37 -68 5 c-53 3 -85 -1 -138 -17 -38 -12 -81 -26 -96 -31 -27 -8 -28
-7 -28 31 0 22 6 52 14 67 18 34 65 78 91 85 30 8 133 -1 158 -14z m-432 -37
c56 -29 119 -105 119 -144 0 -18 -2 -17 -33 6 -62 47 -146 24 -261 -70 -88
-73 -139 -152 -155 -244 -14 -81 -29 -122 -42 -114 -16 10 -39 109 -39 168 1
206 164 426 316 426 26 0 62 -11 95 -28z m761 -38 c14 -7 33 -21 42 -29 19
-20 21 -75 4 -98 -12 -15 -18 -14 -73 9 -33 14 -86 28 -117 31 -62 6 -68 14
-42 52 38 54 119 69 186 35z m264 -118 c45 -44 58 -88 33 -113 -12 -12 -82 13
-169 58 -25 13 -46 24 -48 25 -12 5 17 38 47 54 59 31 88 26 137 -24z m-3923
-60 c34 -32 47 -83 47 -192 0 -87 -2 -94 -32 -140 -47 -69 -97 -91 -242 -104
-144 -14 -169 -6 -174 54 -5 62 4 83 43 96 19 6 40 20 45 30 9 16 6 17 -28 9
-51 -12 -58 -11 -76 7 -50 49 71 214 158 214 23 0 24 -3 19 -41 -4 -29 -2 -44
8 -50 27 -17 39 -10 33 19 -4 21 1 36 20 59 53 63 134 81 179 39z m3402 4
c153 -17 244 -40 402 -102 165 -65 239 -112 306 -196 52 -65 70 -101 106 -217
39 -128 51 -209 51 -367 0 -125 -36 -527 -64 -708 -47 -303 -59 -370 -86 -463
-16 -56 -34 -131 -40 -167 -12 -69 -108 -477 -140 -595 -10 -38 -33 -137 -50
-220 -68 -326 -100 -408 -201 -519 -51 -55 -75 -72 -191 -129 -150 -74 -217
-91 -368 -90 -84 0 -105 4 -175 32 -209 84 -321 206 -368 401 -59 241 -62 515
-11 995 25 234 13 413 -50 740 -74 391 -80 615 -21 869 60 264 264 566 443
659 37 19 108 44 157 55 142 34 173 36 300 22z m694 -75 c31 -35 40 -80 25
-119 -8 -20 -24 -21 -24 -2 0 19 -98 108 -111 100 -6 -3 -3 8 5 25 23 44 64
43 105 -4z m-6494 -245 c86 -16 175 -41 295 -80 29 -10 -88 -5 -268 12 l-122
11 -93 -62 c-55 -36 -84 -61 -72 -61 11 0 43 16 70 35 28 20 60 43 72 51 20
14 36 15 120 6 54 -6 153 -14 220 -16 167 -8 232 -24 233 -57 0 -12 -52 -17
-84 -9 -17 4 -101 13 -187 20 -140 11 -166 11 -244 -5 -48 -9 -106 -25 -129
-36 -22 -10 -54 -19 -70 -19 -15 0 -40 -10 -56 -23 -15 -13 -53 -29 -84 -36
-51 -11 -59 -17 -72 -47 -8 -18 -14 -47 -14 -65 l0 -31 51 46 c33 29 69 51
102 61 28 8 53 19 56 24 14 21 163 80 208 81 170 6 413 -1 413 -12 0 -19 31
-48 52 -48 10 0 18 -4 18 -10 0 -13 18 -11 -175 -21 -93 -5 -201 -15 -240 -22
-65 -13 -72 -13 -101 5 -37 21 -75 13 -94 -22 -6 -11 -20 -20 -31 -20 -38 0
-124 -52 -180 -108 -71 -73 -164 -155 -187 -164 -103 -44 -326 -144 -360 -163
-25 -14 -69 -27 -105 -31 -80 -8 -403 -82 -440 -101 -23 -11 -42 -12 -105 -3
-90 12 -126 33 -130 78 -5 54 9 67 105 90 95 23 302 63 423 82 159 25 290 51
330 65 53 19 60 19 60 0 0 -27 15 -16 40 32 50 94 104 170 189 263 158 173
275 286 321 308 57 28 131 29 265 2z m1616 -20 c46 -22 93 -40 105 -40 12 0
48 14 80 30 46 25 68 30 108 28 l50 -3 -3 -47 c-1 -26 3 -56 9 -68 13 -24 67
-50 104 -50 23 0 22 -3 -23 -48 -95 -95 -171 -259 -171 -365 1 -64 16 -107 69
-196 23 -39 44 -84 47 -101 8 -37 -13 -117 -33 -124 -7 -3 -53 -10 -102 -16
-109 -14 -196 2 -300 55 -126 63 -195 57 -315 -29 -139 -99 -336 -358 -403
-528 -13 -35 -28 -73 -33 -85 -6 -14 -26 -26 -63 -37 -91 -26 -103 -23 -122
32 -23 67 -45 223 -45 319 0 77 2 84 30 117 35 39 86 62 162 72 149 19 280 71
308 123 9 17 6 18 -34 14 -37 -5 -46 -2 -60 18 -18 27 -21 70 -6 85 6 6 32 9
59 6 28 -2 58 1 71 8 21 11 22 15 16 103 -6 84 -5 95 16 132 27 46 68 75 195
139 83 42 93 50 115 94 35 72 38 190 6 269 -23 56 -24 62 -9 81 15 19 67 52
83 52 3 0 44 -18 89 -40z m3326 -92 c-3 -8 -6 -5 -6 6 -1 11 2 17 5 13 3 -3 4
-12 1 -19z m-4400 -42 c4 -3 -7 -6 -24 -6 -17 0 -36 6 -42 14 -10 12 -6 13 24
6 20 -5 39 -11 42 -14z m23 -46 c0 -11 -4 -20 -10 -20 -5 0 -10 5 -10 10 0 6
-8 10 -17 11 -15 0 -15 2 2 9 30 13 35 12 35 -10z m-130 -20 c28 -9 19 -13
-25 -10 -37 2 -60 20 -24 19 13 -1 35 -5 49 -9z m-501 -167 c58 -65 85 -78 64
-31 -10 22 -8 23 41 24 28 1 75 5 104 9 51 7 52 7 52 -17 0 -24 -2 -24 -43
-18 -50 7 -110 -6 -104 -23 5 -16 42 -25 110 -26 41 -1 59 -5 63 -16 4 -8 12
-15 20 -15 7 0 11 6 8 14 -4 9 6 16 32 21 32 6 40 3 56 -17 16 -22 24 -15 19
16 -3 14 17 24 82 42 31 9 57 22 57 29 0 7 17 15 38 18 34 5 40 2 79 -41 67
-73 76 -100 81 -242 3 -109 0 -139 -22 -234 -31 -128 -63 -205 -123 -298 -87
-133 -211 -221 -383 -270 -118 -34 -220 -37 -358 -8 -125 27 -195 57 -312 135
-73 49 -107 79 -146 132 -79 107 -106 157 -78 146 10 -4 14 2 14 21 0 15 7 56
16 91 16 63 17 64 81 102 90 52 136 95 248 229 90 107 103 118 131 115 6 -1
21 30 34 69 22 66 50 110 70 110 4 0 36 -30 69 -67z m516 7 c-3 -5 -11 -10
-16 -10 -6 0 -7 5 -4 10 3 6 11 10 16 10 6 0 7 -4 4 -10z m-153 -22 c4 -20 0
-23 -29 -22 -23 1 -39 8 -49 23 -15 21 -14 21 29 21 38 0 45 -3 49 -22z m64 7
c-19 -14 -36 -12 -36 6 0 5 12 9 28 9 26 -1 26 -1 8 -15z m465 -214 c21 -17
24 -28 24 -88 0 -86 -33 -158 -107 -232 -28 -28 -53 -50 -54 -48 -9 9 21 76
36 80 9 2 28 27 41 55 13 28 29 51 35 52 7 0 19 11 28 25 20 30 13 84 -13 117
-15 18 -20 19 -39 7 -12 -8 -26 -25 -31 -39 l-9 -25 -1 28 c-1 39 26 87 48 87
10 0 29 -9 42 -19z m-2577 -13 c7 -12 7 -41 -2 -100 -27 -184 -12 -210 128
-233 65 -10 65 -11 90 -60 30 -62 38 -147 16 -198 -12 -29 -26 -42 -61 -57
-26 -11 -51 -20 -57 -20 -21 0 -68 -42 -68 -61 0 -11 14 -33 31 -48 l31 -29
-14 -48 -14 -49 -84 -5 c-47 -3 -90 -8 -97 -13 -9 -5 -12 15 -12 80 -1 88 -22
189 -55 267 -20 46 -29 43 -17 -5 15 -57 33 -260 29 -319 l-3 -55 -68 139
c-37 77 -69 137 -72 134 -10 -9 39 -157 81 -247 24 -51 44 -96 44 -99 0 -3
-27 20 -59 51 -52 50 -91 71 -91 50 0 -3 24 -31 53 -62 29 -31 61 -67 72 -81
43 -55 177 -150 265 -189 84 -37 202 -63 290 -64 47 -1 185 2 307 7 248 10
288 4 337 -54 49 -59 61 -119 61 -305 0 -234 -33 -421 -115 -648 -40 -112
-100 -213 -100 -168 0 33 19 63 36 57 24 -9 16 21 -14 56 -26 29 -30 45 -40
143 -16 143 -52 276 -107 394 -49 101 -67 119 -34 30 31 -82 37 -104 64 -239
14 -69 28 -135 30 -147 4 -19 2 -18 -28 9 -104 98 -446 286 -606 334 -85 26
-270 96 -466 176 -168 68 -312 146 -479 256 -131 87 -169 118 -222 181 -77 92
-124 183 -131 255 -7 65 21 234 48 296 28 63 71 104 154 146 89 46 190 111
238 154 42 37 61 70 108 187 35 90 68 137 110 158 l29 16 0 -49 c0 -61 26 -99
75 -108 57 -10 103 13 182 93 101 101 179 135 207 91z m816 -258 c-8 -5 -22
-10 -30 -10 -13 0 -13 1 0 10 8 5 22 10 30 10 13 0 13 -1 0 -10z m114 -67 c10
-38 28 -92 42 -122 28 -63 28 -61 10 -61 -8 0 -28 -12 -45 -26 -23 -19 -31
-34 -31 -57 0 -40 28 -102 65 -145 56 -67 217 -113 315 -91 38 9 53 7 101 -12
l57 -23 -71 -33 c-81 -38 -109 -37 -160 1 -32 24 -87 50 -87 41 0 -3 15 -18
32 -34 l33 -29 -44 8 c-25 4 -50 6 -57 3 -19 -7 -89 15 -117 37 -14 11 -39 45
-56 75 -35 61 -96 111 -147 121 -22 4 -54 -1 -96 -15 -34 -12 -72 -21 -85 -21
-41 0 -82 29 -104 72 -29 57 -17 80 65 117 93 42 106 68 71 152 -4 12 1 18 18
23 14 3 32 8 40 12 12 4 14 -5 10 -58 -4 -44 -1 -74 10 -100 18 -42 68 -78
108 -78 57 0 118 84 119 162 0 82 -92 133 -125 68 -18 -35 -19 -72 -3 -88 22
-22 34 -13 30 26 -4 49 9 68 36 53 43 -23 35 -115 -15 -165 -33 -34 -76 -30
-110 10 -19 21 -23 37 -23 92 0 37 4 73 9 81 7 11 154 68 182 70 4 1 14 -29
23 -66z m33 45 c-3 -8 -6 -5 -6 6 -1 11 2 17 5 13 3 -3 4 -12 1 -19z m-354
-123 c3 -17 3 -36 -1 -42 -4 -6 -38 -26 -76 -45 -117 -56 -131 -101 -59 -195
l35 -46 -18 -31 c-48 -84 -66 -105 -118 -140 -46 -33 -66 -40 -123 -45 -100
-9 -157 -57 -218 -182 l-28 -57 -31 19 c-18 10 -50 34 -71 52 -37 32 -40 38
-40 88 0 50 2 55 35 77 31 21 42 23 98 17 76 -8 105 6 131 66 22 48 17 83 -15
108 -13 10 -24 23 -24 28 0 5 24 20 53 32 96 42 102 46 121 85 13 27 19 59 18
102 l0 62 76 21 c42 12 113 32 157 45 44 13 83 21 86 18 4 -4 9 -21 12 -37z
m4690 -48 c53 -31 88 -75 127 -160 60 -127 49 -208 -39 -290 -90 -84 -349
-192 -412 -172 -31 10 -52 62 -47 119 8 91 99 252 162 285 24 14 28 13 48 -6
16 -17 22 -38 26 -95 4 -69 3 -76 -23 -106 -21 -25 -34 -32 -54 -30 -23 3 -27
8 -31 53 l-5 50 -18 -32 c-35 -64 -12 -113 53 -113 72 0 122 65 123 159 0 71
-17 125 -50 151 -50 39 -101 17 -168 -73 -60 -79 -96 -160 -102 -227 -7 -72 9
-122 50 -156 27 -23 38 -26 77 -21 64 8 130 31 245 87 166 80 226 147 244 273
9 63 35 126 74 179 37 49 46 41 26 -24 -11 -33 -19 -84 -19 -114 0 -45 4 -56
24 -69 46 -30 122 25 187 137 57 97 91 132 161 168 73 36 137 40 186 10 39
-24 41 -40 5 -40 -84 0 -205 -53 -269 -117 -71 -71 -75 -86 -72 -226 l3 -123
-38 -76 c-65 -133 -103 -162 -362 -274 -49 -21 -108 -53 -131 -71 -39 -29 -45
-31 -85 -22 -53 12 -103 4 -147 -23 -33 -20 -34 -20 -75 -2 -23 11 -63 19 -89
19 -56 0 -60 10 -27 79 47 100 152 181 205 157 50 -22 27 -52 -68 -86 -49 -18
-58 -24 -42 -29 41 -13 132 32 156 77 14 26 -25 67 -64 67 -87 0 -228 -150
-228 -243 0 -21 -10 -31 -59 -57 -32 -18 -83 -53 -112 -79 -47 -42 -59 -48
-87 -43 -51 7 -118 -17 -166 -60 -56 -48 -84 -93 -117 -186 l-25 -74 -67 74
c-36 40 -103 114 -147 165 l-81 92 78 -5 c89 -7 182 12 249 52 108 62 265 303
341 523 28 82 33 110 33 191 0 79 4 104 24 147 47 100 134 163 282 204 170 47
265 48 337 6z m-4257 -114 c37 -51 38 -58 5 -30 -37 31 -62 34 -86 11 -17 -18
-14 -40 14 -89 20 -36 104 -95 135 -95 20 0 20 1 -4 20 -27 21 -12 27 23 8 12
-6 39 -10 61 -10 29 2 51 -6 80 -25 l41 -28 -80 -3 c-94 -3 -148 13 -213 66
-69 56 -105 155 -70 190 23 23 73 14 94 -15z m-219 -164 c18 -11 48 -47 68
-79 41 -67 82 -106 122 -114 16 -3 62 -8 104 -10 42 -2 98 -12 124 -21 l47
-18 90 46 c106 55 106 55 188 -50 88 -115 113 -250 56 -300 -22 -18 -33 -20
-84 -16 -51 5 -62 3 -81 -16 -20 -20 -21 -20 -66 -3 -25 10 -53 29 -62 42 -52
79 -123 131 -197 144 -22 4 -53 18 -70 31 -56 43 -117 65 -181 65 -96 -1 -126
-9 -335 -100 -110 -48 -341 -130 -366 -130 -23 0 -116 32 -143 49 -19 13 43
122 103 180 43 42 49 45 111 47 39 2 80 11 103 23 49 25 121 103 152 166 l25
50 60 0 c44 0 69 6 95 22 41 26 86 23 137 -8z m5810 -11 c-3 -8 -6 -5 -6 6 -1
11 2 17 5 13 3 -3 4 -12 1 -19z m-4327 -60 c1 -120 54 -276 120 -351 33 -38
57 -49 46 -22 -6 17 -2 18 32 9 19 -5 22 -12 20 -37 -3 -28 -10 -32 -119 -77
-64 -26 -127 -55 -141 -64 -39 -25 -70 -76 -75 -121 -5 -36 -2 -43 20 -58 l26
-17 38 57 c21 31 47 61 58 67 11 6 59 34 106 63 47 29 89 53 92 53 3 0 18 -37
33 -82 27 -81 27 -81 8 -117 -20 -36 -110 -131 -126 -131 -4 0 -6 11 -2 25 9
35 -6 31 -39 -10 -15 -19 -35 -35 -44 -35 -13 0 -15 8 -10 50 6 53 -3 65 -21
26 -28 -62 -133 -145 -167 -132 -8 3 -17 21 -21 41 -9 50 -26 56 -18 6 4 -23
3 -41 -2 -41 -11 0 -143 35 -169 44 -11 4 3 -13 30 -38 42 -39 46 -45 22 -36
-38 14 -57 13 -52 -2 3 -8 28 -14 62 -15 l57 -3 -34 29 -35 30 45 -10 c25 -6
48 -13 52 -17 3 -4 16 -45 28 -92 25 -97 100 -353 125 -420 22 -63 42 -90 66
-90 43 0 39 27 -49 330 -24 85 -48 173 -54 195 -5 22 -11 47 -14 56 -3 12 9
25 41 43 25 15 53 38 62 52 l16 25 13 -31 c13 -30 14 -31 43 -16 28 15 31 15
50 -10 27 -34 71 -68 78 -60 4 4 -10 24 -31 45 -31 32 -35 39 -21 45 11 4 34
-6 62 -24 25 -17 48 -28 52 -25 6 6 -27 38 -62 60 -14 9 -9 17 31 61 l48 51
-4 -33 c-5 -45 16 -54 44 -19 l22 28 26 -29 c40 -44 42 -68 12 -133 -14 -32
-26 -64 -26 -70 0 -20 24 -12 47 17 14 16 10 4 -10 -28 -54 -87 -98 -180 -91
-191 4 -7 10 -7 16 -1 7 7 25 -2 54 -30 45 -43 46 -54 8 -92 -13 -14 -13 -16
-1 -16 9 0 24 12 36 28 18 25 21 26 36 11 16 -15 16 -19 1 -48 -19 -37 -5 -42
18 -6 10 15 22 22 31 18 31 -11 -49 -52 -122 -63 -114 -16 -245 -48 -260 -63
-18 -17 -7 -44 20 -53 21 -7 21 -7 -3 -17 -25 -10 -25 -10 -3 -16 19 -5 20 -8
8 -24 -15 -21 -15 -21 -61 73 -19 38 -23 41 -23 20 0 -14 13 -49 29 -79 16
-29 27 -57 24 -62 -10 -16 -43 -9 -57 11 l-14 20 -26 -20 -25 -20 -20 25 c-11
14 -23 45 -26 70 -4 25 -11 45 -17 45 -22 0 2 -101 32 -131 15 -15 17 -24 9
-39 -10 -19 -11 -19 -39 6 -29 26 -31 33 -16 68 10 23 -4 47 -37 63 -23 12
-29 9 -88 -48 l-63 -62 -13 29 -12 29 -1 -33 c-1 -30 -6 -35 -56 -58 -31 -13
-62 -24 -70 -24 -29 0 -16 60 28 139 54 96 71 141 53 141 -6 0 -18 -6 -25 -12
-11 -11 -11 -9 -2 10 10 19 9 23 -11 32 -21 8 -20 9 10 9 33 1 44 17 17 27
-12 5 -11 12 7 47 11 23 29 54 39 69 11 14 19 34 19 45 0 15 -3 14 -20 -7 -11
-14 -32 -48 -47 -76 l-27 -52 -53 47 c-29 25 -53 53 -53 61 0 8 -13 37 -28 65
l-27 50 21 41 c12 23 24 51 27 63 3 13 13 21 27 21 17 0 21 -4 15 -17 -36 -90
-53 -143 -46 -143 9 0 27 36 51 100 7 19 16 39 20 43 7 8 110 -6 148 -20 14
-5 14 -3 -2 16 -11 12 -26 19 -34 16 -19 -7 -149 20 -240 51 -91 30 -105 30
-67 -1 34 -28 29 -31 -18 -11 -42 17 -106 94 -88 106 33 20 195 27 342 15 49
-4 94 -3 103 2 15 8 14 12 -6 43 -40 58 -88 75 -203 73 -91 -1 -164 -10 -236
-28 l-26 -6 8 51 c13 85 27 117 53 124 13 3 38 22 56 42 31 35 32 40 28 106
-2 37 -3 68 -2 68 1 0 32 -13 69 -30 116 -52 103 -59 330 176 110 114 202 211
203 215 10 26 22 2 22 -43z m1068 14 c49 -26 97 -88 144 -186 86 -181 133
-264 196 -349 37 -51 88 -120 113 -154 48 -67 209 -248 320 -359 l71 -72 -40
-51 c-38 -48 -82 -143 -82 -177 0 -12 -5 -14 -17 -9 -49 21 -143 34 -205 28
-66 -6 -68 -5 -68 17 0 69 59 163 122 196 17 9 46 16 65 16 40 0 40 17 -1 31
-82 27 -216 -117 -216 -234 0 -27 -2 -29 -27 -23 -41 10 -43 12 -43 50 0 45
26 95 89 169 28 32 51 63 51 68 0 15 -91 -56 -123 -95 -16 -20 -37 -60 -47
-88 l-17 -50 -49 66 c-27 37 -58 77 -69 89 -12 12 -52 62 -90 111 -38 49 -109
136 -158 192 -48 57 -92 114 -97 126 -4 12 -13 65 -19 117 -12 92 -35 159 -59
167 -9 3 -10 -3 -3 -21 5 -14 13 -62 16 -108 4 -46 11 -101 15 -122 l8 -38
-30 18 c-24 14 -42 44 -84 138 -36 80 -66 131 -90 155 -28 27 -33 29 -21 10
17 -26 107 -235 107 -246 0 -20 57 -77 98 -99 59 -31 71 -41 107 -90 16 -22
48 -62 70 -90 23 -27 66 -81 95 -119 54 -69 54 -69 25 -63 -17 4 -80 32 -142
63 -128 64 -203 127 -324 273 -102 122 -133 199 -133 321 0 75 4 96 39 185 56
141 126 208 265 256 48 16 191 5 238 -19z m3279 -34 c-3 -8 -6 -5 -6 6 -1 11
2 17 5 13 3 -3 4 -12 1 -19z m-69 -166 c1 -37 7 -92 12 -122 35 -197 40 -283
27 -485 -6 -110 -11 -278 -10 -372 1 -95 0 -173 -3 -173 -12 0 -26 50 -74 275
-33 156 -85 277 -150 354 l-30 35 10 -35 c6 -18 20 -91 30 -161 11 -70 23
-135 26 -145 6 -16 5 -15 -9 2 -15 19 -15 18 -11 -20 23 -224 58 -361 115
-446 l29 -44 -93 -7 c-50 -4 -180 -11 -287 -17 -277 -14 -390 -51 -580 -192
-91 -66 -304 -275 -409 -399 -70 -83 -126 -119 -184 -120 -51 0 -77 19 -138
101 -100 135 -146 300 -155 562 l-6 152 31 80 c56 142 91 203 165 287 218 249
468 416 756 504 191 59 461 154 527 186 34 17 87 50 119 74 32 24 59 42 61 40
2 -2 -8 -28 -22 -59 -15 -31 -29 -72 -32 -92 -5 -31 -3 -35 17 -35 31 0 78 52
122 136 72 136 83 154 95 149 7 -2 20 9 28 25 9 17 17 30 18 30 1 0 3 -30 5
-68z m-4049 -84 c-4 -24 -8 -49 -9 -55 0 -15 -74 11 -103 36 -18 15 -14 17 50
37 37 12 69 22 69 23 1 1 -2 -18 -7 -41z m-1555 -12 c85 -35 138 -120 152
-241 4 -32 11 -52 17 -48 13 8 2 116 -17 171 -14 38 -14 42 0 42 53 0 150 -86
184 -163 36 -82 44 -168 30 -326 -10 -115 -17 -149 -31 -165 -18 -19 -26 -46
-13 -46 3 0 15 11 26 25 70 89 146 57 207 -88 23 -55 26 -76 26 -177 0 -134
-14 -171 -90 -238 -85 -74 -156 -94 -172 -46 l-9 27 -19 -29 c-17 -25 -20 -50
-21 -179 -4 -241 -30 -354 -104 -438 -39 -44 -106 -90 -354 -243 -105 -64
-150 -99 -238 -187 -59 -59 -139 -150 -178 -202 l-70 -93 -93 5 c-50 3 -111 0
-134 -5 l-43 -10 0 34 c0 18 5 56 11 84 9 42 15 51 37 56 48 10 76 28 140 89
70 69 75 90 45 175 -15 44 -15 50 -1 71 22 34 154 99 199 99 20 0 66 9 102 20
86 27 122 66 114 124 -7 47 -33 86 -72 105 -44 22 -102 0 -122 -46 -8 -20 -12
-46 -9 -59 12 -47 83 -56 106 -15 9 18 7 19 -25 14 -40 -6 -54 12 -35 46 15
29 55 37 84 17 32 -21 51 -78 36 -106 -16 -31 -93 -62 -164 -67 -56 -5 -63 -3
-86 22 -53 56 -24 152 77 253 50 51 82 72 170 113 147 69 189 100 253 188 103
143 185 437 210 760 20 252 -24 411 -129 466 -63 32 -113 35 -338 20 -237 -16
-347 -18 -378 -6 -17 7 -14 10 20 20 58 19 298 107 382 142 39 16 89 33 110
38 59 14 170 12 207 -3z m564 -233 c16 -4 20 -8 12 -13 -17 -11 -50 -155 -50
-220 0 -43 6 -64 25 -92 14 -20 25 -40 25 -43 0 -4 16 -23 36 -43 46 -48 162
-225 180 -275 8 -22 21 -132 29 -246 8 -113 23 -325 34 -471 32 -434 45 -680
35 -690 -5 -5 -62 -35 -126 -68 -133 -67 -288 -173 -436 -298 -64 -53 -107
-82 -115 -78 -6 4 -28 20 -47 35 -19 15 -57 34 -85 43 -64 20 -225 46 -290 46
-27 1 -77 7 -110 15 -33 8 -80 15 -105 15 l-45 0 63 34 c99 54 298 215 386
313 35 39 154 107 224 128 12 3 22 11 22 17 0 16 -66 4 -149 -28 -59 -23 -86
-40 -125 -82 -114 -120 -360 -316 -448 -356 -65 -30 -108 -41 -108 -29 0 16
182 223 256 293 63 59 153 119 381 255 153 90 213 161 244 285 10 37 14 118
14 248 0 177 3 209 20 182 17 -27 110 -1 190 54 16 11 24 11 43 1 l24 -13 -39
-28 c-21 -16 -53 -41 -71 -56 l-33 -28 26 0 c14 0 40 7 57 16 39 20 169 116
188 138 8 11 15 48 17 99 4 70 1 87 -16 115 -11 17 -29 32 -39 32 -15 0 -22
15 -36 83 -29 133 -102 256 -162 271 -12 3 -35 1 -50 -4 -26 -10 -26 -10 -20
20 3 17 9 74 12 128 l7 96 18 -51 c19 -57 62 -124 103 -162 40 -38 33 -6 -21
99 -40 77 -48 101 -51 159 -4 70 8 109 43 145 18 17 28 19 63 9z m-131 -37 c1
-1 -4 -19 -11 -40 l-13 -38 -7 28 c-4 16 -9 37 -12 47 -5 16 -2 18 18 12 12
-4 24 -8 25 -9z m3573 -125 c34 -17 36 -17 75 6 28 16 56 23 93 23 55 0 112
-22 111 -43 0 -6 -39 -39 -87 -72 -47 -33 -139 -112 -204 -175 -65 -64 -116
-109 -113 -100 18 61 22 105 13 126 -15 32 -25 30 -21 -3 2 -16 -5 -65 -15
-110 -16 -63 -29 -93 -60 -132 -23 -28 -72 -102 -111 -164 -73 -118 -97 -186
-86 -245 3 -19 3 -47 0 -63 l-7 -29 -22 32 c-25 38 -66 61 -99 56 -19 -3 -17
-6 16 -22 56 -27 92 -77 89 -120 -4 -38 9 -68 42 -104 17 -20 22 -41 27 -125
9 -140 45 -261 103 -346 48 -69 59 -105 30 -94 -15 5 -15 3 0 -24 8 -17 37
-55 64 -84 87 -97 119 -159 82 -159 -11 0 -22 -5 -25 -10 -7 -11 5 -17 49 -24
38 -7 79 -47 102 -99 10 -23 31 -55 46 -72 23 -25 34 -29 68 -27 91 6 117 4
162 -14 42 -17 52 -17 105 -5 92 21 95 20 115 -22 20 -41 43 -56 61 -38 7 7 8
11 0 11 -6 0 -16 14 -24 31 -12 30 -11 33 17 56 48 39 92 47 144 28 78 -28 83
-29 78 -14 -2 8 -23 23 -46 34 -23 11 -41 22 -42 25 0 3 14 22 30 42 27 33 60
53 185 109 l30 14 -37 3 c-20 2 -53 -4 -74 -13 -20 -8 -40 -13 -43 -10 -10 10
33 77 64 101 18 13 48 25 68 26 43 3 48 14 11 28 -37 14 -47 13 -88 -15 -20
-13 -36 -22 -36 -20 0 2 9 22 21 45 26 50 68 86 119 101 22 7 40 16 40 21 0
15 -65 8 -103 -12 -37 -20 -37 -20 -37 0 0 27 29 97 58 143 35 53 17 60 -28
10 -36 -41 -38 -42 -44 -20 -11 41 -6 105 13 166 10 34 16 61 12 61 -4 0 -23
-21 -42 -46 -32 -43 -34 -44 -40 -22 -13 44 -8 83 16 142 13 33 23 62 21 64
-11 10 -46 -22 -64 -58 -23 -48 -29 -44 -33 24 l-4 50 85 56 c92 62 199 110
366 166 120 40 135 38 169 -19 15 -25 19 -53 20 -127 l0 -94 31 -6 c50 -11 57
-19 51 -63 -4 -26 -16 -50 -38 -73 -34 -35 -34 -36 25 -49 26 -6 28 -8 22 -43
-19 -108 -19 -111 6 -145 22 -29 23 -37 15 -92 -5 -38 -5 -72 1 -92 13 -42 6
-68 -24 -88 -54 -35 -81 -137 -48 -183 28 -41 -12 -122 -61 -122 -14 0 -37
-13 -54 -32 -28 -29 -31 -40 -31 -95 0 -74 -23 -108 -104 -153 -28 -16 -68
-49 -89 -74 -33 -41 -37 -49 -31 -85 8 -49 -16 -76 -77 -86 -52 -8 -56 -10
-219 -104 -134 -77 -133 -77 -247 -55 -26 5 -39 1 -63 -20 -35 -29 -88 -46
-145 -46 -35 0 -47 6 -80 40 -43 44 -60 48 -102 24 -42 -25 -111 -12 -157 29
-41 35 -82 113 -63 120 6 2 -54 36 -134 77 -176 90 -255 160 -283 250 -32 100
-38 109 -100 154 -35 25 -74 59 -88 78 -35 46 -84 145 -97 198 -18 70 -32 100
-52 110 -37 21 -129 318 -129 421 0 46 2 50 16 38 15 -12 16 -10 11 16 -4 17
-14 71 -23 120 -27 147 -6 274 53 327 18 16 19 15 41 -32 23 -50 50 -70 37
-27 -28 93 -32 160 -15 266 12 73 55 172 95 219 27 32 28 33 42 12 22 -31 28
-24 29 29 1 37 12 72 45 138 37 73 52 93 92 120 58 39 134 54 152 30 10 -14
17 -11 56 29 124 127 244 166 349 115z m-5498 -161 c120 -59 418 -177 568
-226 41 -13 108 -36 148 -50 l74 -27 -41 -41 c-22 -22 -51 -66 -65 -96 -38
-81 -35 -142 14 -295 22 -69 40 -140 40 -157 0 -115 -206 -211 -455 -212 -115
-1 -156 10 -179 46 -8 14 -7 24 7 45 27 42 65 124 72 158 5 21 -14 0 -61 -70
-115 -170 -187 -225 -301 -233 -50 -3 -71 0 -116 21 -45 20 -58 32 -77 72 -20
40 -22 56 -16 116 l6 69 -62 0 c-71 0 -102 13 -131 52 -63 84 2 306 111 381
96 67 235 45 324 -50 28 -30 78 -118 78 -138 0 -23 -44 -68 -84 -86 -23 -10
-64 -19 -94 -19 -46 0 -58 4 -83 29 -16 16 -29 37 -29 46 0 54 75 113 128 101
l27 -6 -24 20 c-43 37 -110 17 -152 -46 -37 -57 -12 -136 53 -170 114 -59 313
40 293 146 -4 19 -13 46 -21 61 -12 23 -12 32 0 61 38 91 28 177 -27 236 -36
38 -80 52 -157 51 -89 -1 -142 -19 -165 -56 -52 -84 -138 6 -120 126 9 63 40
130 78 169 51 53 106 94 144 107 35 12 39 11 104 -31 37 -24 123 -71 191 -104z
m3123 81 c-13 -14 -15 -13 -15 6 0 12 3 29 7 39 6 15 7 14 15 -6 6 -17 4 -28
-7 -39z m340 -284 c139 -98 181 -112 418 -132 l182 -17 47 -51 c26 -29 47 -54
48 -57 0 -3 -174 -4 -387 -3 l-388 2 -28 83 c-15 46 -42 135 -58 198 -16 63
-33 124 -36 135 -3 12 13 1 43 -30 27 -27 99 -85 159 -128z m-1175 103 c8 -5
11 -10 5 -10 -5 0 -17 5 -25 10 -8 5 -10 10 -5 10 6 0 17 -5 25 -10z m-66 -15
c26 -8 52 -12 57 -9 5 2 1 -16 -8 -41 -10 -25 -20 -45 -23 -45 -5 1 -82 110
-77 110 1 0 24 -7 51 -15z m1020 -150 c8 -33 24 -86 35 -118 l20 -58 -27 20
c-15 12 -45 36 -67 55 l-39 35 33 41 c44 55 31 64 -20 14 -44 -42 -43 -36 9
55 29 49 32 46 56 -44z m-834 -210 c7 -8 8 -15 2 -15 -5 0 -15 7 -22 15 -7 8
-8 15 -2 15 5 0 15 -7 22 -15z m1790 -26 c195 -7 313 -16 348 -25 l52 -15 0
-52 c0 -29 -4 -57 -8 -63 -10 -14 -115 -51 -182 -63 -85 -15 -170 -23 -170
-16 0 3 12 22 26 41 49 63 9 86 -53 31 -21 -19 -57 -44 -80 -57 -23 -13 -39
-28 -36 -33 3 -6 1 -7 -4 -4 -19 12 -190 -31 -255 -64 -34 -17 -87 -40 -116
-50 -28 -10 -62 -25 -73 -33 -12 -8 -27 -12 -34 -9 -8 2 -22 -8 -31 -24 -10
-15 -46 -62 -80 -104 -34 -41 -69 -91 -79 -110 -10 -19 -24 -42 -33 -51 -47
-54 -38 22 13 113 19 33 35 67 35 74 0 11 77 85 125 119 11 8 17 17 14 21 -10
9 -146 -21 -172 -38 -12 -8 -38 -19 -58 -26 -38 -12 -86 -55 -122 -111 -12
-19 -33 -36 -45 -38 -26 -4 -27 4 -6 47 9 18 17 43 18 56 0 13 5 21 10 17 5
-3 6 2 3 12 -4 10 -3 15 3 11 12 -7 42 49 35 67 -4 9 31 24 120 52 126 39 186
70 205 105 8 17 7 18 -13 14 l-22 -6 23 25 c20 22 33 26 114 31 50 3 96 11
102 18 8 9 0 10 -38 5 -27 -3 -71 -6 -97 -6 -42 0 -55 -5 -88 -35 -30 -27 -63
-42 -142 -66 -57 -16 -135 -42 -173 -57 -62 -24 -74 -33 -110 -85 -38 -54
-139 -145 -178 -159 -11 -5 -2 16 26 60 24 37 53 86 66 109 15 27 45 57 89 86
96 65 122 76 208 88 80 11 127 31 120 52 -3 9 -35 11 -108 9 -168 -4 -275 -45
-365 -138 -44 -47 -74 -66 -74 -49 0 3 27 48 61 100 45 70 68 97 88 102 51 12
207 75 251 101 32 19 65 29 115 33 81 7 357 3 775 -12z m-2039 -31 c20 -37 17
-123 -6 -148 -29 -32 -74 -52 -100 -46 l-24 6 34 51 c19 28 39 69 45 92 16 61
18 67 29 67 6 0 16 -10 22 -22z m263 -7 c3 -5 -1 -14 -9 -21 -13 -10 -15 -9
-15 9 0 21 14 28 24 12z m10 -76 c-9 -14 -19 -23 -22 -20 -5 4 26 45 35 45 2
0 -4 -11 -13 -25z m725 -128 c-2 -1 -13 -9 -24 -17 -19 -14 -19 -14 -6 3 7 9
18 17 24 17 6 0 8 -1 6 -3z m-310 -104 c-27 -28 -49 -61 -49 -72 0 -21 25 -51
42 -51 7 0 6 -5 -1 -14 -7 -8 -9 -25 -5 -41 6 -24 10 -26 36 -21 33 6 33 8 -1
-50 l-25 -41 -80 1 c-71 1 -89 -3 -146 -30 -74 -35 -125 -75 -151 -119 l-19
-30 -1 95 c-1 52 -1 105 -1 118 1 28 74 132 131 186 l40 39 -5 -39 c-3 -21 -7
-47 -9 -56 -7 -39 15 -25 49 29 19 32 46 72 60 88 l25 30 -6 -37 c-7 -48 7
-48 32 -1 11 21 33 52 48 70 27 31 28 31 57 15 l29 -17 -50 -52z m-137 50 c13
-16 12 -20 -8 -39 l-23 -22 -21 23 -21 22 23 16 c29 20 32 20 50 0z m1670 1
l46 -6 -54 -77 c-65 -92 -104 -167 -104 -202 0 -32 -15 -39 -79 -39 -74 0
-156 26 -266 85 -151 81 -170 73 -38 -16 119 -80 181 -102 289 -103 l92 -1 5
-45 c3 -25 2 -48 -2 -53 -4 -4 -59 -13 -122 -21 -62 -8 -143 -23 -179 -32
-189 -51 -257 -5 -314 210 -20 75 -24 101 -15 112 27 33 125 76 245 109 71 19
145 42 164 50 58 25 241 41 332 29z m98 -74 c-8 -57 2 -183 20 -257 6 -28 7
-51 0 -68 -16 -42 -12 -107 14 -207 40 -152 75 -236 118 -281 30 -32 38 -48
38 -78 0 -50 77 -202 129 -255 23 -23 60 -49 84 -59 23 -11 43 -20 45 -21 2
-1 12 -36 22 -78 23 -92 62 -152 133 -205 61 -45 169 -103 223 -121 54 -17 60
-24 74 -78 17 -63 54 -110 104 -133 54 -25 73 -24 132 6 27 14 52 25 55 25 3
0 20 -20 37 -43 l31 -44 -61 -17 c-111 -31 -222 -54 -333 -70 -119 -17 -381
-35 -436 -30 -32 3 -32 3 11 -13 63 -23 327 -23 465 0 135 23 284 62 351 92
31 14 70 25 86 25 32 0 97 30 118 55 25 30 48 36 90 25 22 -6 40 -15 40 -20 0
-21 -311 -180 -382 -195 -18 -4 -53 -18 -78 -32 -117 -64 -600 -241 -794 -289
-145 -37 -213 -60 -204 -70 3 -3 30 1 59 9 30 8 90 22 134 32 44 9 123 31 175
47 94 30 393 139 434 159 14 7 11 1 -9 -16 -16 -14 -91 -56 -165 -94 -74 -37
-158 -82 -186 -100 -53 -34 -508 -243 -684 -316 -191 -78 -484 -161 -707 -200
-79 -14 -189 -40 -245 -58 -243 -79 -606 -253 -761 -363 -55 -39 -69 -44 -40
-11 51 55 135 203 148 262 6 23 -2 15 -30 -30 -60 -99 -172 -241 -275 -348
-94 -99 -290 -272 -350 -310 l-30 -19 0 24 c0 18 10 28 48 45 55 25 77 58 87
128 6 39 26 78 90 175 45 69 112 165 149 215 63 83 125 196 141 255 3 14 -8 0
-26 -30 -17 -30 -66 -100 -108 -155 -43 -55 -95 -126 -117 -157 l-41 -57 -2
47 c-1 25 -9 62 -19 82 -16 33 -16 38 1 89 41 122 12 437 -59 636 -23 64 -39
131 -44 185 -14 136 -66 265 -138 343 -43 46 -80 113 -68 124 4 4 68 -72 158
-187 43 -54 112 -100 152 -100 13 0 4 11 -32 38 -28 20 -86 82 -130 137 -44
57 -100 115 -128 134 -28 19 -65 57 -84 84 -19 27 -60 68 -92 90 -49 35 -64
53 -93 113 -42 87 -90 132 -195 180 -41 19 -111 52 -155 74 -72 35 -76 38 -40
33 95 -12 227 -44 262 -62 21 -11 70 -48 108 -82 88 -79 194 -158 311 -232 68
-43 107 -76 152 -131 110 -132 287 -300 372 -353 38 -23 279 -113 390 -144 36
-11 92 -19 125 -18 l60 1 -85 14 c-159 27 -417 127 -505 197 -79 62 -195 170
-263 246 l-70 77 171 -86 c143 -71 302 -136 426 -172 51 -15 1 11 -119 61 -69
29 -170 77 -225 106 -55 29 -140 74 -190 100 -128 66 -353 217 -485 322 -25
21 63 4 170 -32 168 -57 422 -124 531 -140 110 -16 304 -19 374 -7 32 6 5 11
-130 25 -94 10 -202 23 -242 29 -65 10 -71 13 -62 30 5 10 34 35 64 55 l55 36
93 -11 c88 -10 200 -4 271 14 26 6 27 5 17 -14 -6 -11 -8 -34 -5 -50 l6 -30
-134 -7 c-74 -4 -150 -4 -169 0 -28 6 -32 5 -21 -6 10 -11 50 -14 167 -14
l154 0 -6 -43 c-5 -35 -2 -47 17 -67 12 -13 20 -28 16 -33 -3 -5 -62 -22 -131
-38 -99 -22 -121 -30 -103 -37 26 -9 97 -2 182 19 32 8 61 12 64 9 3 -3 6 -47
7 -98 0 -100 22 -178 58 -209 37 -34 103 -19 187 43 61 45 36 47 -49 5 -39
-20 -83 -36 -99 -36 -25 0 -33 8 -59 58 -29 55 -30 61 -25 154 l4 97 77 26
c42 15 81 29 86 31 7 2 20 -35 33 -89 26 -105 70 -209 71 -167 1 14 -13 72
-29 129 -40 138 -39 143 13 166 78 34 162 88 215 138 29 28 50 52 48 54 -2 3
-28 -14 -58 -38 -44 -35 -237 -138 -260 -139 -7 0 -32 99 -27 104 2 2 65 24
139 49 128 42 330 127 358 149 7 6 14 9 17 7 4 -5 -258 -335 -313 -393 -35
-38 -34 -38 28 11 100 77 223 224 598 715 103 135 227 311 261 369 67 117 26
1 -104 -296 -48 -110 -98 -231 -110 -270 -13 -38 -26 -79 -30 -90 -5 -11 7 0
25 24 36 49 65 109 166 341 36 85 77 178 89 206 48 106 55 150 54 322 0 153 1
165 23 205 27 47 138 200 143 195 1 -2 -1 -28 -5 -58z m-1866 14 c-20 -15 -32
-19 -39 -12 -7 7 -6 12 1 15 6 2 20 10 30 17 31 23 38 5 8 -20z m276 13 c0 -2
-10 -12 -22 -23 l-23 -19 19 23 c18 21 26 27 26 19z m-225 -27 c3 -5 -1 -20
-9 -32 -16 -22 -16 -22 -16 10 0 31 12 42 25 22z m-121 -52 c-32 -33 -39 -34
-49 -11 -9 25 43 67 62 51 11 -9 9 -16 -13 -40z m-60 -23 c16 -24 16 -27 -4
-55 -25 -35 -33 -32 -60 20 -21 42 -25 54 -12 47 4 -3 16 -1 27 4 30 12 31 11
49 -16z m393 19 c-3 -3 -12 -4 -19 -1 -8 3 -5 6 6 6 11 1 17 -2 13 -5z m-472
-63 c8 -16 21 -35 29 -43 12 -12 10 -20 -10 -54 -13 -21 -24 -37 -25 -34 -4
26 -14 160 -12 160 1 0 9 -13 18 -29z m715 -25 c0 -2 -8 -10 -17 -17 -16 -13
-17 -12 -4 4 13 16 21 21 21 13z m219 -171 c-11 -36 -22 -77 -23 -91 -1 -22
-4 -24 -41 -18 -66 10 -123 6 -157 -12 -53 -26 -98 -64 -119 -98 -10 -17 -19
-29 -19 -26 0 3 -9 52 -20 110 -21 110 -24 137 -14 127 3 -3 24 5 45 19 21 13
42 24 47 24 4 0 7 -27 6 -60 -2 -78 10 -89 68 -63 24 11 55 25 69 31 14 5 59
38 99 71 40 34 75 60 77 57 2 -2 -6 -34 -18 -71z m254 -41 c15 -30 32 -52 37
-49 5 3 7 -1 4 -9 -3 -8 9 -30 29 -52 l34 -38 -43 -59 c-24 -33 -44 -65 -44
-72 0 -16 -16 -21 -90 -30 -160 -20 -425 -88 -828 -216 -123 -39 -225 -69
-227 -67 -1 2 -5 103 -7 225 l-6 223 29 -32 c29 -30 30 -30 49 -13 11 10 20
24 20 30 0 24 65 77 133 110 45 22 91 36 135 40 37 4 72 12 79 17 17 14 21 2
43 -126 21 -123 47 -202 59 -176 3 8 12 16 18 17 7 2 34 19 60 39 27 20 62 43
80 50 37 16 101 18 135 5 13 -4 45 -11 71 -15 l48 -7 -16 37 c-8 20 -15 40
-15 45 0 4 20 17 45 28 25 11 45 24 45 29 0 11 61 105 75 114 17 13 20 10 48
-48z m-458 16 c-3 -5 -14 -10 -23 -9 -14 0 -13 2 3 9 27 11 27 11 20 0z m222
-44 c-3 -8 -1 -17 6 -20 9 -3 9 -5 0 -5 -15 -1 -26 16 -18 29 9 15 18 12 12
-4z m43 -30 c0 -2 -8 -10 -17 -17 -16 -13 -17 -12 -4 4 13 16 21 21 21 13z
m830 -66 c-17 -34 -35 -58 -40 -55 -13 8 -53 86 -47 91 4 4 79 21 105 23 8 1
1 -21 -18 -59z m-94 -17 c15 -32 32 -61 37 -65 7 -4 4 -16 -7 -33 -20 -31 -18
-32 -113 57 -34 32 -69 58 -79 58 -32 0 -4 14 54 26 31 7 62 13 69 13 7 1 25
-25 39 -56z m-214 -63 c66 -68 93 -116 103 -182 7 -44 5 -51 -26 -89 l-33 -42
-9 29 c-5 16 -12 38 -17 49 -71 169 -98 206 -149 204 -23 -2 -23 -2 -4 -6 12
-2 33 -17 46 -33 30 -35 83 -160 98 -230 18 -86 -2 -82 -63 12 -78 119 -111
153 -173 179 -30 12 -55 26 -55 29 0 11 80 115 103 132 17 14 34 16 72 12 44
-4 55 -11 107 -64z m40 62 c9 -4 50 -40 92 -80 l75 -73 -31 -44 c-37 -52 -48
-56 -48 -17 -1 45 -38 114 -93 170 -40 40 -47 52 -32 51 11 0 28 -3 37 -7z
m-1525 -214 c-3 -8 -6 -5 -6 6 -1 11 2 17 5 13 3 -3 4 -12 1 -19z m1233 17 c0
-21 -308 -173 -395 -195 -120 -31 -364 -148 -500 -240 -137 -93 -325 -259
-392 -347 l-24 -31 -57 14 c-31 8 -97 25 -146 38 l-89 23 43 41 c74 73 277
225 393 296 118 72 278 152 462 231 61 26 128 56 150 66 103 48 555 133 555
104z m77 -53 c38 -37 143 -197 143 -218 0 -10 -84 -126 -142 -198 l-24 -28
-94 16 c-333 55 -720 5 -991 -128 -38 -19 -67 -30 -64 -25 9 13 241 186 273
203 37 19 204 34 507 46 221 8 419 30 435 47 3 3 -31 3 -75 -1 -44 -4 -217
-11 -385 -17 -168 -5 -321 -12 -340 -14 -25 -4 5 15 100 62 l135 68 292 5
c160 3 294 8 298 12 12 12 -149 23 -305 21 l-155 -3 130 60 c78 36 144 74 165
95 19 19 40 34 46 34 7 1 29 -16 51 -37z m-798 -96 c-2 -2 -67 -29 -144 -60
-77 -32 -174 -76 -215 -98 -162 -88 -391 -256 -500 -368 -61 -62 -48 -60 -174
-28 l-39 10 74 40 c91 49 183 114 229 163 27 28 5 16 -95 -50 -163 -109 -228
-141 -278 -137 l-37 3 87 73 c65 54 122 89 216 135 172 82 338 151 472 195 61
19 171 55 245 80 122 40 171 53 159 42z m-502 -58 c-3 -8 -6 -5 -6 6 -1 11 2
17 5 13 3 -3 4 -12 1 -19z m-147 -103 c0 -2 -10 -9 -22 -15 -22 -11 -22 -10
-4 4 21 17 26 19 26 11z m1157 -193 c7 -5 -54 -28 -150 -56 -89 -27 -167 -51
-172 -53 -6 -2 -16 19 -21 47 -10 47 -9 51 10 55 61 13 315 19 333 7z m232
-22 c27 -15 -240 -138 -432 -199 -53 -17 -103 -31 -111 -31 -9 0 -15 18 -19
52 -4 28 -5 53 -3 55 2 2 64 22 137 44 73 22 160 54 193 69 56 27 67 29 141
23 44 -3 86 -9 94 -13z m-590 -72 c1 -24 -4 -28 -53 -42 -72 -21 -74 -21 -90
19 -32 75 -30 79 54 90 l75 10 6 -25 c4 -14 7 -37 8 -52z m-1889 36 c30 -9 84
-31 120 -49 36 -17 108 -48 160 -68 126 -48 187 -113 229 -240 10 -29 16 -35
26 -27 10 8 27 -2 72 -44 64 -59 107 -131 142 -236 28 -85 41 -105 41 -65 l1
30 20 -25 c30 -36 84 -145 103 -210 9 -30 20 -99 23 -152 3 -54 10 -98 15 -98
4 0 8 5 8 12 0 30 20 -14 44 -97 42 -148 59 -267 60 -430 1 -150 1 -151 -31
-215 -33 -67 -35 -91 -3 -52 l19 23 11 -41 c24 -90 -19 -220 -101 -308 -36
-38 -36 -46 -4 -40 29 6 30 0 11 -46 -19 -46 -84 -71 -159 -62 -30 3 -57 3
-61 -1 -10 -11 47 -43 77 -43 25 0 27 -3 22 -22 -16 -53 -52 -104 -85 -121
-37 -19 -118 -16 -167 6 -38 17 -41 -2 -5 -32 28 -22 33 -32 30 -61 -4 -45
-48 -71 -132 -77 -60 -5 -64 -4 -100 28 l-38 33 4 -34 c3 -32 1 -34 -47 -51
-94 -33 -177 -18 -262 47 -31 24 -33 24 -33 5 0 -11 11 -33 25 -49 33 -39 18
-52 -60 -52 -71 1 -104 14 -137 55 -54 66 -60 92 -56 247 6 170 21 230 77 288
28 30 46 40 68 40 l31 0 -19 -37 c-10 -20 -17 -39 -14 -41 2 -3 22 11 44 31
54 49 112 77 160 77 60 0 72 -7 59 -36 -8 -16 -8 -31 -1 -46 9 -22 11 -20 30
22 20 46 78 105 117 119 59 23 66 23 66 3 0 -21 36 -59 47 -49 3 4 1 18 -5 32
-18 38 -14 94 9 145 20 44 20 44 32 21 24 -47 32 -17 29 105 -3 101 0 130 17
182 12 34 21 73 21 88 0 15 -20 63 -44 108 -57 105 -80 184 -72 247 5 34 2 57
-8 76 -16 31 -148 188 -196 233 -42 39 -79 128 -90 218 -6 41 -12 78 -16 81
-9 9 -24 -22 -24 -51 0 -27 -2 -28 -55 -28 -109 0 -154 17 -248 93 -22 17 -69
37 -127 53 -92 25 -143 27 -82 3 18 -8 31 -18 29 -24 -6 -17 -88 -33 -173 -34
-91 -1 -148 -16 -140 -37 3 -7 -8 -22 -23 -34 -25 -17 -30 -18 -35 -4 -12 32
-5 77 24 145 16 38 26 69 21 69 -14 0 -50 -45 -70 -90 -25 -54 -26 -91 -6
-130 15 -28 14 -31 -25 -82 -22 -29 -40 -56 -40 -59 0 -4 -10 -9 -23 -13 -13
-3 -29 -17 -37 -31 -26 -48 -60 -23 -60 45 -1 35 -3 41 -11 27 -6 -9 -9 -36
-7 -60 2 -32 8 -44 26 -52 26 -12 26 -15 7 -79 -8 -27 -15 -66 -15 -86 0 -31
-4 -39 -22 -44 -48 -12 -87 -6 -117 20 -28 23 -31 24 -31 7 0 -35 47 -68 95
-68 l44 0 -37 -38 c-47 -48 -122 -97 -150 -97 -11 0 -30 12 -42 28 l-21 27 6
-30 c8 -39 41 -67 69 -59 18 5 16 1 -10 -26 -30 -30 -33 -31 -70 -21 -21 6
-55 11 -75 11 -33 0 -36 2 -53 53 -31 87 -63 135 -107 157 -79 41 -104 139
-54 213 26 37 47 45 75 28 30 -20 28 2 -5 45 -53 69 -48 136 15 208 l32 35 29
-21 c37 -28 45 -19 20 23 -24 39 -28 129 -8 169 13 26 71 70 93 70 9 0 14 -12
14 -34 0 -57 15 -49 28 14 21 102 126 229 210 255 21 6 23 5 13 -13 -19 -36
-12 -35 33 5 56 49 187 128 266 159 73 30 192 56 234 52 l31 -3 -40 -22 c-48
-27 -34 -29 49 -7 177 47 340 53 456 18z m1719 -45 c7 -34 11 -63 9 -65 -2 -2
-44 -10 -92 -19 -93 -16 -171 -18 -246 -7 l-44 7 87 43 c71 35 241 99 268 101
4 1 12 -26 18 -60z m-2696 7 c18 -7 40 -22 50 -33 17 -19 16 -21 -21 -47 -21
-14 -50 -26 -65 -26 -71 0 -207 -112 -247 -203 -16 -36 -26 -45 -68 -60 -27
-10 -59 -28 -70 -40 -29 -32 -45 -92 -40 -148 3 -27 2 -49 -3 -49 -4 0 -20
-11 -36 -24 l-28 -23 0 168 0 168 31 32 c23 23 43 33 78 36 54 6 57 -2 20 -46
-37 -45 -11 -38 35 8 34 34 42 51 58 122 19 91 47 134 105 162 41 21 156 22
201 3z m2868 -68 c5 -102 6 -98 -31 -108 -19 -5 -58 -12 -86 -16 l-51 -6 -6
31 c-9 43 10 69 58 82 22 5 51 14 65 19 36 12 50 12 51 -2z m18 -172 c6 -25
11 -51 11 -59 0 -8 -33 -24 -85 -42 l-85 -28 -20 24 c-15 18 -19 36 -17 69 l2
45 80 16 c44 9 85 17 91 18 7 1 17 -19 23 -43z m-4182 -283 c50 -21 83 -43
126 -87 81 -82 87 -94 94 -175 l6 -72 -28 11 c-27 10 -62 37 -137 106 -42 38
-74 49 -121 40 -44 -8 -154 -61 -160 -78 -8 -20 -24 7 -31 56 -15 101 72 226
156 226 15 0 58 -12 95 -27z m1954 -184 c30 -11 63 -24 74 -29 11 -5 46 -21
78 -34 64 -28 94 -48 170 -118 52 -46 62 -62 111 -168 14 -30 44 -79 66 -108
41 -54 81 -155 83 -207 1 -38 -55 -157 -118 -255 -27 -41 -69 -106 -94 -145
-51 -79 -122 -175 -162 -220 -56 -61 -102 -156 -105 -215 -2 -30 -13 -89 -24
-130 -17 -59 -20 -97 -18 -178 2 -56 2 -102 1 -102 -2 0 -23 42 -47 94 -35 75
-50 96 -76 110 -18 9 -42 16 -53 16 -11 0 -28 6 -36 14 -14 13 -16 10 -12 -32
2 -25 9 -55 16 -67 21 -32 68 -155 62 -162 -20 -19 -181 14 -267 55 -101 49
-322 306 -421 490 -34 64 -85 158 -113 207 -28 50 -59 110 -69 135 -16 40 -69
271 -63 277 1 2 83 -7 182 -18 147 -17 186 -18 219 -9 l40 12 -24 19 c-19 16
-65 33 -116 43 -86 18 -125 28 -125 33 0 2 41 48 91 101 108 115 175 206 235
322 83 159 87 166 168 233 39 33 62 44 115 54 81 15 160 9 232 -18z m5089 -46
c105 -26 171 -66 272 -166 53 -52 67 -73 86 -130 75 -232 42 -465 -112 -783
-41 -85 -99 -194 -127 -242 -96 -160 -277 -415 -359 -506 -24 -27 -28 -36 -14
-28 49 26 187 195 311 382 181 272 304 537 348 750 22 103 22 264 2 338 -8 28
-13 52 -11 52 10 0 37 -71 55 -147 19 -77 21 -109 16 -253 -4 -160 -6 -169
-47 -300 -45 -143 -170 -437 -247 -580 -116 -216 -349 -541 -485 -678 -57 -56
-104 -99 -105 -95 -1 5 -7 57 -12 117 -8 94 -15 120 -45 182 -53 107 -129 154
-250 154 l-50 0 31 23 c117 86 382 361 474 491 l50 71 -48 -55 c-149 -173
-510 -512 -620 -583 -23 -15 -49 -40 -58 -57 -9 -16 -18 -30 -21 -30 -33 0
-212 134 -257 193 -60 78 -167 318 -167 373 0 9 24 -2 67 -31 113 -76 239
-112 348 -100 185 21 397 134 664 354 57 47 113 94 125 103 11 10 18 18 14 18
-3 0 -53 -36 -111 -79 -127 -97 -306 -215 -408 -270 -223 -120 -391 -130 -573
-33 -95 51 -121 84 -137 172 -13 73 -2 181 20 203 6 6 36 -2 83 -21 218 -90
482 -114 668 -62 236 66 500 268 680 520 96 135 122 199 128 311 4 73 1 94
-20 145 -36 90 -72 130 -157 172 l-75 37 -148 0 c-81 -1 -146 0 -145 1 1 1 49
22 106 47 115 49 137 50 261 20z m-6301 -101 c18 -33 3 -42 -20 -13 -12 15
-19 39 -19 65 0 58 14 68 20 14 3 -23 12 -54 19 -66z m-1049 43 c17 -9 30 -19
30 -24 0 -4 -42 -36 -92 -72 -51 -35 -112 -81 -135 -102 -40 -36 -42 -37 -52
-18 -16 28 -13 97 4 131 16 31 66 73 105 89 38 15 107 13 140 -4z m1751 -66
c-5 -13 -10 -19 -10 -12 -1 15 10 45 15 40 3 -2 0 -15 -5 -28z m5551 11 c114
-43 177 -132 186 -264 5 -82 -10 -134 -23 -77 -8 36 -87 118 -150 156 -111 66
-264 114 -398 124 l-89 6 47 30 c61 38 82 42 242 44 110 1 141 -2 185 -19z
m-5571 -44 c14 8 -45 -102 -73 -138 l-18 -23 9 30 c47 154 54 169 62 146 5
-13 13 -19 20 -15z m-1275 -67 c61 -12 172 -66 272 -133 67 -45 124 -103 194
-196 14 -19 45 -55 67 -80 118 -130 270 -364 406 -622 191 -364 318 -507 631
-707 101 -65 212 -164 246 -219 12 -21 37 -56 54 -79 43 -57 74 -152 74 -231
0 -81 -46 -217 -98 -287 -21 -27 -45 -62 -55 -77 -9 -15 -47 -51 -84 -81 -161
-129 -295 -179 -418 -158 -118 21 -292 103 -635 299 -259 148 -578 366 -785
536 -409 336 -641 559 -700 675 -49 96 -110 308 -120 416 -9 105 9 293 36 355
59 140 136 239 303 391 209 189 376 244 612 198z m168 -5 c3 -8 2 -12 -4 -9
-6 3 -10 10 -10 16 0 14 7 11 14 -7z m71 -44 c3 -6 -1 -7 -9 -4 -18 7 -21 14
-7 14 6 0 13 -4 16 -10z m-990 -46 c18 -5 15 -10 -26 -53 -26 -27 -70 -81 -97
-120 -50 -71 -50 -72 -66 -49 -37 52 -8 156 52 192 49 28 102 40 137 30z
m-199 -277 c2 -7 -8 -44 -24 -82 -16 -39 -34 -91 -42 -118 -7 -26 -17 -50 -21
-53 -18 -11 -49 60 -49 111 0 62 26 107 77 134 45 24 52 25 59 8z m-94 -407
l3 -110 -20 21 c-16 16 -20 33 -20 92 0 39 3 80 7 90 17 41 27 11 30 -93z"/>
<path d="M10846 9440 c-33 -6 -65 -15 -70 -21 -8 -9 -4 -10 14 -6 53 12 240
17 330 9 l95 -9 -150 -2 c-164 -1 -314 -16 -330 -33 -7 -7 0 -8 24 -3 53 11
435 8 566 -4 66 -7 187 -23 270 -37 169 -27 168 -27 161 -15 -3 5 -22 12 -42
16 -20 3 -46 12 -58 20 -26 16 -131 40 -295 66 -143 23 -424 33 -515 19z m437
-37 c-13 -2 -33 -2 -45 0 -13 2 -3 4 22 4 25 0 35 -2 23 -4z"/>
<path d="M10860 9214 c-85 -9 -170 -27 -176 -36 -4 -6 1 -8 13 -4 32 10 303
26 423 24 63 -1 93 -3 65 -5 -143 -8 -432 -36 -450 -44 -29 -12 -11 -11 195 7
267 24 648 24 767 0 108 -21 144 -17 58 7 l-60 17 55 -5 c72 -7 46 10 -41 26
-61 10 -770 22 -849 13z"/>
<path d="M11024 9000 c-171 -10 -329 -28 -358 -41 -15 -7 -5 -8 34 -5 342 31
1072 33 1235 3 44 -8 82 -13 84 -11 8 7 -53 25 -137 40 -103 19 -628 27 -858
14z"/>
<path d="M11009 8949 c-155 -8 -378 -35 -388 -45 -3 -4 28 -4 69 -1 244 21
503 29 750 23 151 -3 298 -8 325 -11 l50 -4 -44 14 c-101 33 -413 43 -762 24z"/>
<path d="M11150 8784 c-14 -1 -133 -8 -265 -15 -132 -6 -247 -16 -255 -21 -9
-5 87 -5 235 -1 330 10 845 8 920 -4 41 -6 -57 -8 -315 -5 -346 4 -723 -8
-834 -26 -21 -4 267 -7 642 -7 374 0 675 3 669 7 -8 5 -8 8 2 8 9 0 11 3 5 9
-15 15 -142 39 -259 51 -96 9 -476 12 -545 4z m758 -61 c-10 -2 -26 -2 -35 0
-10 3 -2 5 17 5 19 0 27 -2 18 -5z"/>
<path d="M11025 8609 c-218 -9 -399 -26 -440 -39 -24 -8 -17 -9 35 -5 289 22
1096 33 1213 16 86 -12 54 8 -39 24 -88 16 -456 18 -769 4z"/>
<path d="M10725 8528 c-259 -17 -166 -23 312 -21 571 3 875 12 867 24 -7 11
-1003 9 -1179 -3z"/>
<path d="M10940 8360 c-182 -13 -366 -35 -330 -38 19 -2 117 1 217 8 199 13
792 14 943 2 67 -5 -52 -9 -405 -14 -473 -6 -692 -17 -760 -39 -21 -6 -5 -7
55 -3 47 3 333 9 635 13 382 5 559 11 578 19 16 7 45 12 65 12 67 0 19 17 -83
30 -118 14 -764 22 -915 10z"/>
<path d="M11265 8060 c-187 -4 -409 -8 -493 -9 -107 -1 -151 -4 -146 -12 4 -8
197 -10 659 -7 359 1 648 6 642 10 -32 20 -256 25 -662 18z"/>
<path d="M10620 7998 c0 -15 110 -19 642 -21 431 -2 560 1 569 10 10 10 -114
13 -599 15 -337 2 -612 0 -612 -4z"/>
<path d="M10733 7783 c-40 -2 -73 -8 -73 -13 0 -6 66 -10 163 -10 89 0 304 -5
477 -11 284 -11 600 -6 586 9 -5 4 -285 13 -866 25 -118 2 -248 3 -287 0z"/>
<path d="M10645 7732 c-20 -9 168 -15 851 -29 204 -4 327 -2 338 4 13 7 -37
12 -166 16 -320 12 -1002 18 -1023 9z"/>
<path d="M10884 7559 c-89 -5 -172 -13 -185 -18 -28 -10 931 -4 1001 7 120 18
-512 26 -816 11z"/>
<path d="M10910 7510 c-184 -12 -226 -18 -195 -25 24 -5 159 -3 329 5 191 8
381 10 555 6 146 -4 263 -5 259 -1 -3 3 -59 13 -124 20 -157 19 -522 17 -824
-5z"/>
<path d="M10720 7320 c-79 -10 -31 -12 225 -12 l220 0 -207 -8 c-230 -8 -338
-18 -338 -29 0 -4 177 -6 393 -4 615 5 790 9 817 21 20 9 3 11 -85 13 -77 1
-97 4 -65 8 57 8 -439 22 -704 19 -111 -1 -226 -4 -256 -8z"/>
<path d="M10760 7063 c0 -10 678 -40 803 -35 143 6 79 19 -130 26 -531 17
-673 19 -673 9z"/>
<path d="M10720 7019 c104 -13 754 -49 875 -48 176 1 167 15 -15 23 -91 4
-273 13 -405 21 -268 16 -570 19 -455 4z"/>
<path d="M11545 6819 c-49 -4 -259 -8 -465 -9 -206 -1 -361 -6 -345 -10 17 -4
202 -8 411 -9 363 -1 475 6 498 29 6 6 6 9 1 8 -6 0 -50 -4 -100 -9z"/>
<path d="M10680 6761 c32 -19 208 -33 480 -38 291 -6 418 3 497 32 35 13 30
13 -72 7 -144 -9 -481 -9 -725 0 -115 5 -189 4 -180 -1z"/>
<path d="M11565 6549 c-22 -4 -168 -14 -324 -20 -275 -12 -343 -10 -516 17
l-30 4 30 -14 c65 -31 186 -39 482 -33 217 4 303 10 348 22 94 25 102 44 10
24z"/>
<path d="M10778 6468 c60 -17 337 -29 507 -24 195 7 319 16 312 22 -2 3 -194
6 -425 7 -232 1 -409 -1 -394 -5z"/>
<path d="M11325 6318 c-88 -5 -263 -7 -388 -5 -168 3 -224 1 -210 -7 45 -27
781 -16 830 13 21 12 3 12 -232 -1z"/>
<path d="M11380 6259 c-41 -4 -188 -9 -327 -11 -173 -2 -246 -6 -235 -13 18
-11 422 -10 554 1 42 3 85 12 95 20 21 15 24 15 -87 3z"/>
<path d="M11190 6089 c-151 -4 -302 -12 -335 -18 -43 -7 28 -8 250 -5 321 5
370 8 380 24 4 6 0 9 -7 8 -7 -1 -137 -5 -288 -9z"/>
<path d="M11000 6018 c-164 -10 -225 -26 -105 -27 140 -1 480 18 506 28 30 12
-207 12 -401 -1z"/>
<path d="M5342 8828 c5 -15 48 -18 48 -3 0 6 -11 11 -26 13 -18 3 -25 0 -22
-10z"/>
<path d="M5242 8798 c-14 -14 -16 -38 -2 -38 13 0 32 38 22 44 -5 3 -14 0 -20
-6z"/>
<path d="M5928 8764 c-36 -26 -42 -27 -260 -36 -247 -10 -302 -20 -412 -75
-154 -77 -234 -140 -383 -306 -31 -34 -61 -47 -114 -47 -57 0 -50 -19 33 -91
132 -113 269 -190 399 -224 134 -35 271 -54 322 -44 224 42 388 300 442 694 8
61 17 120 21 133 8 29 -3 28 -48 -4z m-195 -86 c12 -6 36 -12 52 -12 23 -1 31
-6 33 -23 4 -27 11 -28 50 -6 36 21 64 12 58 -19 -3 -13 -10 -51 -17 -86 -9
-49 -15 -62 -28 -58 -9 2 -29 7 -45 11 -15 3 -35 13 -43 20 -8 9 -33 15 -57
15 -24 0 -63 7 -87 16 -97 35 -220 11 -384 -75 -89 -46 -225 -174 -225 -212 0
-14 -11 -36 -24 -48 -13 -12 -22 -30 -20 -39 2 -9 -3 -26 -11 -36 -14 -19 -16
-18 -70 18 -42 28 -55 42 -55 61 0 27 32 47 59 37 10 -4 12 2 6 26 -8 39 1 72
21 72 9 0 14 10 14 28 1 37 18 65 65 105 115 97 264 175 380 200 86 19 297 22
328 5z m-10 -469 c31 -7 57 -15 57 -19 0 -17 -83 -112 -123 -141 -100 -73
-182 -89 -321 -65 -49 9 -91 18 -93 19 -2 2 10 22 26 44 37 52 84 85 108 77
14 -4 15 -4 4 4 -17 12 -4 20 95 57 53 20 80 25 119 21 35 -4 43 -3 25 3 -23
8 -22 9 11 10 20 1 61 -4 92 -10z"/>
<path d="M5484 8175 c-18 -14 -18 -14 9 -15 16 0 26 4 23 9 -4 5 0 12 6 14 9
4 8 6 -3 6 -8 1 -24 -6 -35 -14z"/>
<path d="M5720 8150 c0 -5 4 -10 9 -10 6 0 13 5 16 10 3 6 -1 10 -9 10 -9 0
-16 -4 -16 -10z"/>
<path d="M5680 8100 c0 -5 5 -10 11 -10 5 0 7 5 4 10 -3 6 -8 10 -11 10 -2 0
-4 -4 -4 -10z"/>
<path d="M5317 8047 c7 -51 15 -57 73 -56 25 1 37 3 28 6 -13 3 -18 15 -18 42
0 35 -2 38 -24 34 -13 -3 -33 0 -44 6 -19 10 -20 8 -15 -32z"/>
<path d="M5645 8070 c-3 -5 1 -10 9 -10 8 0 18 5 21 10 3 6 -1 10 -9 10 -8 0
-18 -4 -21 -10z"/>
<path d="M5560 8031 c0 -6 5 -13 10 -16 6 -3 10 1 10 9 0 9 -4 16 -10 16 -5 0
-10 -4 -10 -9z"/>
<path d="M5465 7990 c-28 -7 -28 -8 -5 -9 14 0 32 4 40 9 17 11 8 11 -35 0z"/>
<path d="M4503 6804 c24 -48 57 -222 65 -349 8 -114 8 -118 20 -80 17 57 15
119 -9 236 -23 115 -57 210 -77 217 -11 3 -11 -2 1 -24z"/>
<path d="M6210 7081 c0 -4 25 -24 56 -44 65 -43 68 -27 3 20 -46 33 -59 39
-59 24z"/>
<path d="M6077 6932 c-3 -4 12 -22 34 -40 24 -21 39 -28 39 -19 0 23 -64 75
-73 59z"/>
<path d="M6000 6922 c0 -5 11 -14 25 -20 29 -14 34 2 6 18 -24 12 -31 13 -31
2z"/>
<path d="M5517 6758 c-15 -23 -27 -55 -27 -71 0 -36 15 -27 24 14 3 17 15 43
26 59 21 30 25 40 12 40 -4 0 -20 -19 -35 -42z"/>
<path d="M5573 6726 c-30 -49 -51 -106 -40 -106 10 0 78 132 75 145 -2 7 -17
-10 -35 -39z"/>
<path d="M6147 6732 c-20 -21 -40 -105 -25 -100 6 2 17 23 24 46 6 24 18 49
24 57 18 21 -4 19 -23 -3z"/>
<path d="M6201 6654 c-26 -40 -41 -94 -27 -94 7 0 67 133 62 138 -3 2 -19 -17
-35 -44z"/>
<path d="M5670 6618 c-22 -36 -25 -48 -11 -48 5 0 18 18 30 40 25 48 9 54 -19
8z"/>
<path d="M6277 6584 c-28 -46 -29 -71 -2 -43 18 18 48 89 38 89 -5 0 -21 -21
-36 -46z"/>
<path d="M5713 6568 c-18 -38 -23 -57 -17 -73 10 -26 21 -16 27 23 3 20 8 45
12 55 10 25 -10 21 -22 -5z"/>
<path d="M9686 6959 c-16 -26 -17 -43 -11 -112 8 -95 27 -137 89 -200 67 -66
135 -97 216 -97 111 0 135 45 48 89 -26 13 -74 49 -105 79 -32 31 -62 54 -66
53 -5 -1 -6 3 -3 8 6 9 -28 48 -76 88 -15 12 -32 40 -38 61 -15 59 -32 68 -54
31z"/>
<path d="M5370 6230 c-10 -25 -17 -29 -34 -24 -78 26 -160 -64 -154 -171 3
-45 6 -52 36 -66 l32 -17 -35 -26 c-19 -15 -51 -34 -70 -42 -39 -16 -45 -30
-16 -39 30 -9 80 17 142 73 65 59 93 116 109 218 6 38 13 81 16 97 8 36 -10
35 -26 -3z m-24 -64 c6 -15 -19 -110 -34 -134 -5 -8 -28 -16 -51 -19 l-41 -6
0 38 c0 44 25 100 54 120 26 19 65 19 72 1z"/>
<path d="M5275 5826 c-35 -15 -75 -81 -75 -124 0 -42 42 -90 83 -94 l32 -3
-64 -62 c-63 -62 -67 -77 -13 -49 46 24 168 158 182 200 8 24 9 41 3 45 -6 3
-14 16 -17 29 -10 31 -56 72 -81 72 -11 -1 -33 -7 -50 -14z m79 -42 c26 -25
20 -79 -12 -115 -25 -28 -31 -30 -62 -22 -47 12 -60 49 -37 98 24 51 80 70
111 39z"/>
<path d="M5316 5390 c-47 -91 -71 -127 -97 -141 -16 -8 -20 -7 -18 3 8 63 -31
108 -95 108 -93 0 -156 -64 -156 -159 0 -32 5 -62 11 -68 7 -7 0 -17 -26 -33
-37 -23 -72 -66 -62 -76 3 -4 32 8 64 26 74 42 115 62 183 93 115 52 176 117
220 236 33 86 18 94 -24 11z m-151 -89 c9 -19 12 -41 8 -62 -5 -27 -15 -36
-67 -59 -91 -41 -102 -43 -121 -24 -13 14 -16 28 -11 61 10 77 50 112 128 113
42 0 49 -3 63 -29z"/>
<path d="M8364 6824 c3 -9 6 -48 6 -87 1 -66 2 -70 15 -53 17 23 20 108 5 137
-13 23 -35 26 -26 3z"/>
<path d="M8265 6669 c10 -16 7 -123 -5 -153 -6 -18 -6 -26 1 -26 15 0 39 64
39 104 0 38 -18 86 -32 86 -5 0 -6 -5 -3 -11z"/>
<path d="M8163 6479 c-22 -27 31 -109 54 -85 3 3 -2 14 -11 25 -9 10 -20 31
-24 46 -6 22 -10 25 -19 14z"/>
<path d="M8165 6090 c-5 -9 76 -52 84 -45 2 3 -4 13 -13 24 -18 20 -63 33 -71
21z"/>
<path d="M9722 5989 c-42 -21 -101 -84 -89 -95 3 -4 25 10 48 30 80 68 194 74
214 12 7 -21 8 -21 12 2 3 16 -3 32 -18 48 -30 32 -106 33 -167 3z"/>
<path d="M8219 5969 c-18 -18 -21 -30 -17 -71 3 -27 11 -55 18 -61 10 -10 11
-2 6 41 -7 56 4 92 30 92 8 0 12 5 9 10 -9 15 -23 12 -46 -11z"/>
<path d="M9780 5738 c-19 -13 -35 -29 -38 -36 -3 -11 2 -10 21 2 85 56 176 24
177 -61 1 -27 1 -27 15 -9 20 26 11 54 -31 94 -42 40 -94 43 -144 10z"/>
<path d="M9783 5533 c-24 -9 -13 -23 18 -23 17 0 39 -5 50 -10 24 -13 72 -107
65 -127 -4 -9 -1 -13 6 -11 37 12 5 116 -48 157 -25 20 -63 26 -91 14z"/>
<path d="M9742 5253 c-42 -8 -11 -23 49 -23 51 0 64 -4 86 -26 22 -22 25 -32
20 -67 -3 -23 -10 -43 -15 -45 -5 -1 -18 -9 -28 -17 -18 -14 -18 -14 4 -15 36
0 72 43 72 85 0 94 -66 131 -188 108z"/>
<path d="M9530 4941 c0 -6 8 -11 19 -11 65 0 60 -138 -6 -190 l-26 -20 32 0
c68 0 112 133 65 197 -21 28 -84 46 -84 24z"/>
<path d="M6555 6510 c-12 -4 -27 -16 -35 -26 -14 -18 -14 -18 12 -1 16 10 49
17 80 18 42 1 48 3 28 9 -33 10 -60 11 -85 0z"/>
<path d="M6651 6452 c-19 -9 -37 -23 -39 -31 -3 -10 6 -8 30 7 20 12 51 22 69
23 28 0 31 2 14 9 -29 13 -36 12 -74 -8z"/>
<path d="M6805 6240 c-21 -22 -36 -43 -32 -46 4 -4 24 9 44 29 33 34 41 37 94
37 32 0 61 5 64 10 4 6 -19 10 -62 10 -67 0 -70 -1 -108 -40z"/>
<path d="M7632 5552 c-27 -70 -19 -305 13 -418 13 -46 48 -94 60 -82 3 2 -4
40 -16 84 -16 60 -22 121 -26 257 -3 98 -9 180 -13 182 -4 3 -12 -8 -18 -23z"/>
<path d="M7005 4697 c-67 -119 -269 -313 -474 -457 -34 -24 -60 -45 -58 -47
14 -13 83 20 154 73 193 146 323 286 390 422 20 40 34 74 32 76 -2 2 -22 -28
-44 -67z"/>
<path d="M6945 4359 c-38 -52 -186 -193 -287 -273 -78 -61 -89 -87 -21 -46 98
58 298 254 339 333 22 40 3 32 -31 -14z"/>
<path d="M8110 4324 c-306 -38 -380 -41 -498 -20 -93 16 -80 2 22 -24 103 -26
178 -25 426 5 113 14 240 25 282 25 76 0 109 12 65 24 -35 9 -183 5 -297 -10z"/>
<path d="M6455 3940 c-7 -12 7 -59 72 -240 57 -158 115 -278 159 -327 39 -45
45 -32 9 22 -57 82 -93 168 -196 464 -32 93 -34 97 -44 81z"/>
<path d="M8015 3926 c-49 -13 -121 -36 -160 -51 -38 -14 -133 -48 -210 -74
-167 -58 -378 -142 -371 -148 2 -3 186 56 408 130 222 74 418 138 435 142 18
3 35 11 38 16 10 15 -45 9 -140 -15z"/>
<path d="M6798 3870 c-34 -30 -61 -64 -68 -85 -17 -50 -6 -66 16 -25 11 19 43
60 72 91 28 30 52 59 52 62 0 16 -19 4 -72 -43z"/>
<path d="M5815 3862 c21 -22 173 -93 250 -117 129 -38 287 -76 293 -70 11 11
-19 22 -157 59 -75 20 -185 57 -246 82 -127 53 -155 62 -140 46z"/>
<path d="M5626 3420 c-5 -14 -30 -77 -56 -140 -53 -126 -68 -180 -51 -180 6 0
11 5 11 11 0 6 25 74 56 151 30 76 54 149 52 161 -4 21 -4 21 -12 -3z"/>
<path d="M5882 5639 c-18 -5 -30 -14 -27 -19 3 -5 0 -7 -8 -4 -8 3 -38 -21
-75 -60 -66 -70 -84 -117 -63 -162 19 -44 51 -31 115 46 75 90 108 110 179
110 60 0 72 8 63 44 -11 46 -103 68 -184 45z"/>
<path d="M3342 4298 c-13 -53 -6 -91 20 -115 20 -18 20 -18 12 7 -5 14 -8 53
-8 88 2 72 -9 81 -24 20z"/>
<path d="M3180 4120 c0 -43 5 -55 34 -88 42 -45 55 -39 20 10 -14 20 -28 54
-31 77 -8 60 -23 61 -23 1z"/>
<path d="M3099 3985 c-43 -70 3 -185 72 -185 38 0 37 17 -1 25 -38 8 -52 34
-59 110 -3 33 -9 56 -12 50z"/>
<path d="M5051 2653 c-35 -20 -76 -36 -91 -35 -37 1 -70 19 -70 37 0 8 -4 15
-10 15 -20 0 -9 -39 18 -60 33 -27 78 -23 146 11 43 21 100 70 80 68 -5 0 -38
-17 -73 -36z"/>
<path d="M4522 2528 c-20 -20 -14 -90 12 -138 50 -94 144 -134 187 -81 24 30
25 49 1 28 -45 -40 -122 -5 -162 74 -22 43 -26 99 -8 117 9 9 9 12 -3 12 -8 0
-20 -5 -27 -12z"/>
<path d="M4258 2514 c-35 -19 -48 -43 -48 -92 0 -72 70 -146 131 -140 l34 4
-30 14 c-98 46 -134 159 -65 202 20 13 27 28 13 28 -5 -1 -20 -7 -35 -16z"/>
<path d="M3590 3117 c7 -42 109 -255 156 -327 19 -28 27 -60 35 -131 10 -92
19 -112 45 -102 33 12 45 54 51 173 7 139 0 165 -59 211 -21 17 -66 67 -99
110 -33 44 -61 79 -63 79 -2 0 -19 6 -38 14 l-35 15 7 -42z m257 -399 c-3 -8
-6 -5 -6 6 -1 11 2 17 5 13 3 -3 4 -12 1 -19z"/>
<path d="M9378 3732 c6 -179 -42 -348 -147 -518 -50 -79 -191 -256 -279 -348
-26 -26 -37 -43 -26 -38 36 19 196 195 266 293 140 196 199 364 201 569 1 63
-3 123 -9 132 -6 12 -8 -18 -6 -90z"/>
<path d="M1922 3643 c-50 -60 -123 -151 -163 -203 -77 -102 -205 -265 -333
-425 -104 -131 -111 -144 -36 -65 59 61 207 243 430 530 52 67 119 153 149
191 86 110 53 90 -47 -28z"/>
<path d="M2060 3643 c-104 -107 -188 -212 -396 -494 -246 -334 -265 -361 -260
-366 6 -7 79 85 323 408 122 162 241 314 263 339 29 31 23 21 -19 -35 -33 -44
-128 -170 -210 -280 -82 -110 -191 -254 -241 -320 -51 -66 -97 -127 -104 -135
-10 -13 -9 -13 8 0 35 27 290 344 438 545 82 110 184 247 228 304 44 57 80
107 80 112 0 24 -32 1 -110 -78z"/>
<path d="M1849 3637 c-36 -45 -128 -162 -205 -261 -155 -199 -207 -265 -278
-355 -26 -34 -46 -64 -44 -67 13 -12 490 586 583 729 37 58 7 33 -56 -46z"/>
<path d="M2204 3524 c-43 -49 -108 -125 -144 -169 -67 -83 -222 -270 -343
-414 -114 -135 -236 -290 -248 -314 -6 -12 7 -2 28 23 21 24 87 101 147 170
60 69 188 220 284 335 96 116 208 250 251 300 107 126 113 134 109 147 -2 6
-40 -29 -84 -78z"/>
<path d="M2260 3513 c-103 -105 -355 -397 -539 -623 -195 -239 -241 -300 -228
-300 3 0 76 84 163 187 391 460 524 614 608 705 49 54 94 104 98 113 20 35
-13 9 -102 -82z"/>
<path d="M2338 3302 c-130 -132 -674 -734 -747 -827 -81 -103 300 298 599 630
271 301 264 294 259 300 -3 2 -52 -44 -111 -103z"/>
<path d="M2350 3242 c-69 -75 -216 -233 -327 -352 -195 -209 -392 -437 -393
-453 0 -7 69 65 161 168 24 27 128 138 230 245 313 328 472 510 458 525 -3 2
-61 -57 -129 -133z"/>
<path d="M2541 3257 c-24 -29 -157 -171 -296 -317 -314 -329 -563 -610 -541
-610 2 0 91 93 197 208 106 114 277 295 379 402 209 217 275 292 297 333 23
45 11 40 -36 -16z"/>
<path d="M2456 3078 c-106 -106 -258 -268 -338 -360 -80 -92 -187 -213 -239
-269 -52 -57 -87 -99 -79 -94 23 14 212 214 407 430 99 110 241 259 315 330
139 135 157 155 138 155 -7 0 -98 -87 -204 -192z"/>
<path d="M2645 3081 c-445 -520 -658 -766 -704 -813 -30 -32 -51 -58 -45 -58
13 0 118 109 260 270 210 239 488 563 517 602 47 63 26 62 -28 -1z"/>
<path d="M2648 2983 c-206 -249 -532 -623 -663 -762 -41 -44 -50 -57 -28 -42
54 37 474 500 648 716 49 61 108 132 132 160 24 27 43 53 43 57 0 24 -30 -6
-132 -129z"/>
<path d="M2749 2843 c-63 -70 -145 -163 -184 -208 -62 -72 -339 -389 -491
-562 -99 -112 -39 -66 83 65 157 167 687 765 718 810 13 18 13 22 2 22 -7 0
-65 -57 -128 -127z"/>
<path d="M2714 2692 c-100 -119 -274 -319 -387 -444 -113 -124 -208 -232 -212
-240 -23 -44 380 386 540 576 225 268 270 326 248 326 -5 0 -90 -98 -189 -218z"/>
<path d="M2937 2723 c-74 -110 -163 -222 -449 -566 -241 -290 -234 -299 13
-17 292 335 530 653 506 677 -2 2 -34 -40 -70 -94z"/>
<path d="M2893 2584 c-210 -285 -384 -520 -445 -602 -97 -129 -104 -141 -50
-85 52 54 210 261 459 599 150 203 170 234 153 234 -5 0 -58 -66 -117 -146z"/>
<path d="M3075 2542 c-106 -129 -238 -305 -403 -537 -74 -104 -149 -208 -165
-230 l-31 -40 32 29 c18 17 128 158 244 315 117 158 246 329 288 381 96 120
122 158 118 170 -2 5 -39 -35 -83 -88z"/>
<path d="M3128 2498 c-35 -43 -219 -296 -481 -663 -44 -60 -84 -117 -90 -125
-6 -8 1 -4 17 10 40 35 546 717 584 787 22 41 7 36 -30 -9z"/>
<path d="M3300 2342 c-37 -51 -395 -514 -522 -676 -42 -55 -76 -102 -73 -104
8 -8 117 118 268 310 305 387 340 434 365 491 18 41 1 32 -38 -21z"/>
<path d="M3334 2307 c-62 -66 -525 -665 -557 -720 -17 -29 -16 -29 18 8 53 57
201 243 355 445 74 96 155 201 182 233 45 55 73 97 64 97 -2 0 -30 -28 -62
-63z"/>
<path d="M3488 2133 c-182 -187 -573 -671 -555 -689 2 -3 36 34 73 82 106 133
313 384 319 384 3 0 -35 -51 -84 -112 -105 -134 -243 -330 -236 -337 3 -2 7
-2 9 0 1 2 65 85 141 184 166 216 281 357 369 453 36 40 66 74 66 77 0 12 -15
2 -68 -47 -55 -50 -55 -51 -16 -8 54 60 68 80 57 80 -4 0 -38 -30 -75 -67z
m-118 -176 c0 -2 -10 -12 -22 -23 l-23 -19 19 23 c18 21 26 27 26 19z"/>
<path d="M3664 1978 c-27 -35 -92 -115 -144 -178 -117 -141 -312 -395 -341
-444 -29 -50 -18 -55 17 -9 48 64 221 282 328 413 156 190 219 280 198 280 -5
0 -31 -28 -58 -62z"/>
<path d="M3733 1988 c-33 -36 -446 -589 -493 -660 -39 -60 -40 -61 -8 -27 89
96 531 684 526 700 -2 6 -13 0 -25 -13z"/>
<path d="M3844 1778 c-102 -106 -426 -516 -464 -588 -31 -58 25 7 205 236 109
140 232 291 272 334 40 43 73 81 73 84 0 17 -23 -1 -86 -66z"/>
<path d="M3889 1764 c-34 -33 -87 -93 -119 -134 -81 -107 -313 -450 -308 -456
7 -6 80 89 188 246 129 186 174 244 249 323 35 37 62 70 58 73 -3 4 -34 -20
-68 -52z"/>
<path d="M4025 1624 c-10 -16 -86 -112 -169 -214 -148 -180 -261 -338 -251
-349 3 -2 12 4 19 15 49 68 376 474 383 474 3 0 -17 -28 -44 -62 -83 -106
-230 -311 -248 -346 -24 -49 -12 -49 20 0 16 24 61 86 100 138 140 185 235
322 235 338 0 10 -10 1 -25 -21 -32 -47 -41 -48 -14 -2 26 43 20 69 -6 29z"/>
</g>
</svg>
